<svg width="34" height="34" viewBox="0 0 34 34" fill="none" xmlns="http://www.w3.org/2000/svg">
<path d="M28.0711 29.2299V26.4456C28.0711 24.9687 27.4844 23.5524 26.4401 22.508C25.3958 21.4637 23.9794 20.8771 22.5025 20.8771H21.1104C20.7412 20.8771 20.3871 20.7304 20.126 20.4693C19.8649 20.2082 19.7183 19.8541 19.7183 19.4849V12.5242C19.7183 11.7858 19.4249 11.0776 18.9028 10.5554C18.3806 10.0333 17.6724 9.73994 16.934 9.73994C16.1955 9.73994 15.4874 10.0333 14.9652 10.5554C14.4431 11.0776 14.1497 11.7858 14.1497 12.5242V25.0535L10.8086 20.5986C10.5492 20.2528 10.2129 19.9722 9.82632 19.7789C9.43971 19.5856 9.0134 19.4849 8.58115 19.4849H7.97696C6.77276 19.4849 5.79688 20.4608 5.79688 21.665C5.79688 22.0604 5.90407 22.4488 6.10732 22.7871L9.97329 29.2299M16.934 5.56353V4.17139V5.56353ZM25.2868 13.9164H26.679H25.2868ZM7.18901 13.9164H8.58115H7.18901ZM10.4508 7.43317L9.46655 6.44893L10.4508 7.43317ZM23.4172 7.43317L24.4014 6.44893L23.4172 7.43317Z" fill="#4CAF4F"/>
<path d="M28.0711 29.2299V26.4456C28.0711 24.9687 27.4844 23.5524 26.4401 22.508C25.3958 21.4637 23.9794 20.8771 22.5025 20.8771H21.1104C20.7412 20.8771 20.3871 20.7304 20.126 20.4693C19.8649 20.2082 19.7183 19.8541 19.7183 19.4849V12.5242C19.7183 11.7858 19.4249 11.0776 18.9028 10.5554C18.3806 10.0333 17.6724 9.73994 16.934 9.73994V9.73994C16.1956 9.73994 15.4874 10.0333 14.9652 10.5554C14.4431 11.0776 14.1497 11.7858 14.1497 12.5242V25.0535L10.8086 20.5986C10.5492 20.2528 10.2129 19.9722 9.82632 19.7789C9.43971 19.5856 9.0134 19.4849 8.58115 19.4849H7.97696C6.77276 19.4849 5.79688 20.4608 5.79688 21.665C5.79688 22.0604 5.90407 22.4488 6.10732 22.7871L9.97329 29.2299M16.934 5.56353V4.17139M25.2868 13.9164H26.679M7.18901 13.9164H8.58115M10.4508 7.43317L9.46655 6.44893M23.4172 7.43317L24.4014 6.44893" stroke="#4CAF4F" stroke-width="1.39214" stroke-linecap="round" stroke-linejoin="round"/>
</svg>
