<svg width="46" height="40" viewBox="0 0 46 40" fill="none" xmlns="http://www.w3.org/2000/svg">
<path d="M45.918 26.6677C45.918 33.5874 40.3084 39.197 33.3887 39.197L14.5948 39.197C12.6727 39.197 11.1145 37.6388 11.1145 35.7166L11.1145 12.0502C11.1145 8.20596 14.2309 5.08955 18.0752 5.08956L42.4376 5.08956C44.3598 5.08956 45.918 6.64776 45.918 8.5699L45.918 26.6677Z" fill="#E8F5E9"/>
<path d="M17.3725 7.1778C14.8867 7.1778 12.863 9.21998 12.863 11.7164C12.863 13.2957 13.6739 14.6901 14.8985 15.5029C13.4195 15.9974 12.1397 16.9217 11.201 18.1309C10.682 17.7317 10.1022 17.4107 9.47705 17.1807C10.425 16.4769 11.0445 15.3464 11.0445 14.0758C11.0445 11.9586 9.33209 10.2253 7.22765 10.2253C5.12321 10.2253 3.41083 11.9586 3.41083 14.0758C3.41083 15.3471 4.03081 16.4782 4.97956 17.1819C2.46774 18.1088 0.673828 20.5356 0.673828 23.3915V25.3977C0.674085 25.5507 0.735261 25.6972 0.843731 25.8049C0.9522 25.9128 1.09897 25.973 1.25191 25.9725H10.0537C10.075 25.9748 10.0964 25.9761 10.1177 25.9758H24.6278C24.6492 25.9761 24.6708 25.9748 24.6919 25.9725H33.4943C33.8107 25.9712 34.067 25.7144 34.0677 25.3977V23.3915C34.0677 20.5356 32.2769 18.1088 29.7664 17.1817C30.7152 16.4782 31.3352 15.3469 31.3352 14.0756C31.3352 11.9583 29.6228 10.2251 27.5183 10.2251C25.414 10.2251 23.7015 11.9583 23.7015 14.0756C23.7015 15.3462 24.3212 16.4768 25.2692 17.1804C24.6428 17.411 24.0626 17.733 23.5429 18.1332C22.6047 16.9233 21.3267 15.9977 19.8477 15.5029C21.072 14.6901 21.8832 13.2957 21.8832 11.7164C21.8832 9.21998 19.8585 7.1778 17.3727 7.1778H17.3725ZM17.3725 8.32934C19.2317 8.32934 20.7305 9.8382 20.7305 11.7164C20.7305 13.5799 19.2551 15.0741 17.4165 15.0981C17.4018 15.0981 17.3874 15.096 17.3725 15.096C17.3576 15.096 17.3435 15.0981 17.3286 15.0981C15.49 15.0744 14.0155 13.58 14.0155 11.7164C14.0155 9.83794 15.5131 8.32934 17.3723 8.32934H17.3725ZM7.22771 11.3768C8.70288 11.3768 9.89299 12.5741 9.89299 14.0758C9.89299 15.5674 8.71828 16.7595 7.257 16.7757C7.24723 16.7757 7.23772 16.7747 7.22769 16.7747C7.21793 16.7747 7.20842 16.7757 7.19839 16.7757C5.73711 16.7595 4.5624 15.5671 4.5624 14.0758C4.5624 12.5741 5.75251 11.3768 7.22767 11.3768H7.22771ZM27.518 11.3768C28.9932 11.3768 30.1833 12.5741 30.1833 14.0758C30.1833 15.5674 29.0085 16.7595 27.5473 16.7757C27.5375 16.7757 27.528 16.7747 27.518 16.7747C27.5082 16.7747 27.4987 16.7757 27.4887 16.7757C26.0274 16.7595 24.8527 15.5671 24.8527 14.0758C24.8527 12.5741 26.0428 11.3768 27.5179 11.3768H27.518ZM17.3284 16.2496C17.3431 16.2498 17.3575 16.2516 17.3724 16.2516C17.387 16.2516 17.4014 16.2496 17.4163 16.2496C21.1036 16.2732 24.0545 19.2495 24.0545 22.9753L24.0543 24.8239H10.691V22.9753C10.691 19.2492 13.6411 16.2732 17.3279 16.2496H17.3284ZM7.18363 17.9286C7.19828 17.9288 7.21267 17.9306 7.22758 17.9306C7.24249 17.9306 7.25663 17.9286 7.27153 17.9286C8.51869 17.9386 9.65688 18.3686 10.5632 19.0881C9.91467 20.2356 9.53962 21.56 9.53962 22.9756V24.8198H1.82491V23.3915C1.82491 20.3635 4.20565 17.9522 7.18349 17.9283L7.18363 17.9286ZM27.4739 17.9286C27.4888 17.9288 27.5029 17.9306 27.5179 17.9306C27.5328 17.9306 27.5469 17.9286 27.5618 17.9286C30.5396 17.9522 32.9204 20.3638 32.9204 23.3917V24.8198H25.2017L25.2015 22.9756C25.2015 21.5608 24.8275 20.2373 24.1802 19.0901C25.0868 18.3697 26.2258 17.9386 27.474 17.9286H27.4739Z" fill="#103E13"/>
</svg>
