<svg width="46" height="40" viewBox="0 0 46 40" fill="none" xmlns="http://www.w3.org/2000/svg">
<path d="M45.791 26.8835C45.791 33.8032 40.1815 39.4127 33.2618 39.4127L14.4679 39.4127C12.5457 39.4127 10.9875 37.8545 10.9875 35.9324L10.9875 12.266C10.9875 8.42172 14.104 5.30531 17.9482 5.30531L42.3107 5.30532C44.2328 5.30532 45.791 6.86352 45.791 8.78566L45.791 26.8835Z" fill="#E8F5E9"/>
<path d="M19.2824 13.6657C19.0652 13.6657 18.8887 13.4895 18.8887 13.272V12.6029C18.8887 12.3857 19.0649 12.2091 19.2824 12.2091C19.4996 12.2091 19.6762 12.3854 19.6762 12.6029V13.272C19.6762 13.4895 19.4996 13.6657 19.2824 13.6657Z" fill="#103E13"/>
<path d="M17.6262 13.6657C17.409 13.6657 17.2324 13.4895 17.2324 13.272V12.6029C17.2324 12.3857 17.4087 12.2091 17.6262 12.2091C17.8434 12.2091 18.0199 12.3854 18.0199 12.6029V13.272C18.0196 13.4895 17.8436 13.6657 17.6262 13.6657Z" fill="#103E13"/>
<path d="M15.9719 13.6657C15.7547 13.6657 15.5781 13.4895 15.5781 13.272V12.6029C15.5781 12.3857 15.7544 12.2091 15.9719 12.2091C16.1891 12.2091 16.3656 12.3854 16.3656 12.6029V13.272C16.3656 13.4895 16.1893 13.6657 15.9719 13.6657Z" fill="#103E13"/>
<path d="M19.2824 16.4021C19.0652 16.4021 18.8887 16.2258 18.8887 16.0084V15.3395C18.8887 15.1223 19.0649 14.9457 19.2824 14.9457C19.4996 14.9457 19.6762 15.122 19.6762 15.3395V16.0084C19.6762 16.2258 19.4996 16.4021 19.2824 16.4021Z" fill="#103E13"/>
<path d="M17.6262 16.4021C17.409 16.4021 17.2324 16.2258 17.2324 16.0084V15.3395C17.2324 15.1223 17.4087 14.9457 17.6262 14.9457C17.8434 14.9457 18.0199 15.122 18.0199 15.3395V16.0084C18.0196 16.2258 17.8436 16.4021 17.6262 16.4021Z" fill="#103E13"/>
<path d="M15.9719 16.4021C15.7547 16.4021 15.5781 16.2258 15.5781 16.0084V15.3395C15.5781 15.1223 15.7544 14.9457 15.9719 14.9457C16.1891 14.9457 16.3656 15.122 16.3656 15.3395V16.0084C16.3656 16.2258 16.1893 16.4021 15.9719 16.4021Z" fill="#103E13"/>
<path d="M19.2824 19.1386C19.0652 19.1386 18.8887 18.9623 18.8887 18.7448V18.0757C18.8887 17.8585 19.0649 17.6819 19.2824 17.6819C19.4996 17.6819 19.6762 17.8582 19.6762 18.0757V18.7448C19.6762 18.9623 19.4996 19.1386 19.2824 19.1386Z" fill="#103E13"/>
<path d="M17.6262 19.1386C17.409 19.1386 17.2324 18.9623 17.2324 18.7448V18.0757C17.2324 17.8585 17.4087 17.6819 17.6262 17.6819C17.8434 17.6819 18.0199 17.8582 18.0199 18.0757V18.7448C18.0196 18.9623 17.8436 19.1386 17.6262 19.1386Z" fill="#103E13"/>
<path d="M15.9719 19.1386C15.7547 19.1386 15.5781 18.9623 15.5781 18.7448V18.0757C15.5781 17.8585 15.7544 17.6819 15.9719 17.6819C16.1891 17.6819 16.3656 17.8582 16.3656 18.0757V18.7448C16.3656 18.9623 16.1893 19.1386 15.9719 19.1386Z" fill="#103E13"/>
<path d="M19.2824 21.8744C19.0652 21.8744 18.8887 21.6981 18.8887 21.4807V20.8115C18.8887 20.5943 19.0649 20.4178 19.2824 20.4178C19.4996 20.4178 19.6762 20.5941 19.6762 20.8115V21.4807C19.6762 21.6981 19.4996 21.8744 19.2824 21.8744Z" fill="#103E13"/>
<path d="M17.6262 21.8744C17.409 21.8744 17.2324 21.6981 17.2324 21.4807V20.8115C17.2324 20.5943 17.4087 20.4178 17.6262 20.4178C17.8434 20.4178 18.0199 20.5941 18.0199 20.8115V21.4807C18.0196 21.6981 17.8436 21.8744 17.6262 21.8744Z" fill="#103E13"/>
<path d="M15.9719 21.8744C15.7547 21.8744 15.5781 21.6981 15.5781 21.4807V20.8115C15.5781 20.5943 15.7544 20.4178 15.9719 20.4178C16.1891 20.4178 16.3656 20.5941 16.3656 20.8115V21.4807C16.3656 21.6981 16.1893 21.8744 15.9719 21.8744Z" fill="#103E13"/>
<path d="M19.2824 24.6108C19.0652 24.6108 18.8887 24.4345 18.8887 24.217V23.5482C18.8887 23.331 19.0649 23.1544 19.2824 23.1544C19.4996 23.1544 19.6762 23.3307 19.6762 23.5482V24.217C19.6762 24.4342 19.4996 24.6108 19.2824 24.6108Z" fill="#103E13"/>
<path d="M17.6262 24.6108C17.409 24.6108 17.2324 24.4345 17.2324 24.217V23.5482C17.2324 23.331 17.4087 23.1544 17.6262 23.1544C17.8434 23.1544 18.0199 23.3307 18.0199 23.5482V24.217C18.0196 24.4342 17.8436 24.6108 17.6262 24.6108Z" fill="#103E13"/>
<path d="M15.9719 24.6108C15.7547 24.6108 15.5781 24.4345 15.5781 24.217L15.5784 23.5482C15.5784 23.331 15.7547 23.1544 15.9721 23.1544C16.1893 23.1544 16.3659 23.3307 16.3659 23.5482V24.217C16.3656 24.4342 16.1893 24.6108 15.9719 24.6108Z" fill="#103E13"/>
<path d="M4.72299 27.334C4.72299 27.5512 4.89927 27.7277 5.11674 27.7277H29.0948C29.312 27.7277 29.4885 27.5514 29.4885 27.334C29.4885 27.1168 29.3122 26.9402 29.0948 26.9402H28.3669V15.6352C28.3669 15.418 28.1906 15.2414 27.9731 15.2414L21.5444 15.2417V7.09132C21.5444 6.95348 21.4725 6.82608 21.355 6.75468C21.2377 6.68302 21.0911 6.67863 20.9692 6.74205L13.6602 10.5475C13.5298 10.6153 13.4485 10.7498 13.4485 10.8967V18.0159H6.37504C6.15785 18.0159 5.98129 18.1922 5.98129 18.4097V26.9403H5.11586C4.89867 26.94 4.72266 27.1163 4.72266 27.3338L4.72299 27.334ZM21.5446 21.2051H27.5798V26.9406L21.5446 26.9403V21.2051ZM21.5446 18.469H27.5798V20.4179L21.5446 20.4177V18.469ZM21.5446 16.0288H27.5798V17.682H21.5446V16.0288ZM14.2356 11.1358L20.7568 7.74035V26.9399H14.2356V11.1358ZM8.71523 23.7954C8.71523 22.9783 9.36268 22.3132 10.1587 22.3132C10.9547 22.3132 11.6024 22.978 11.6024 23.7954V26.9404H8.71523V23.7954ZM6.76877 18.8033H13.4484V26.9403H12.3899V23.7953C12.3899 22.544 11.3893 21.5259 10.1587 21.5259C8.92856 21.5259 7.92802 22.5437 7.92802 23.7953V26.9403H6.76877V18.8033Z" fill="#103E13"/>
</svg>
