<svg width="46" height="40" viewBox="0 0 46 40" fill="none" xmlns="http://www.w3.org/2000/svg">
<path d="M45.6641 26.6677C45.6641 33.5874 40.0545 39.197 33.1348 39.197L14.3409 39.197C12.4188 39.197 10.8606 37.6388 10.8606 35.7166L10.8606 12.0502C10.8606 8.20596 13.977 5.08955 17.8213 5.08956L42.1837 5.08956C44.1059 5.08956 45.6641 6.64776 45.6641 8.5699L45.6641 26.6677Z" fill="#E8F5E9"/>
<path d="M20.1278 16.6754C19.9602 16.6754 19.8046 16.6294 19.6663 16.5552V16.5572C19.6663 16.8209 19.5638 17.0686 19.3779 17.254C19.1919 17.44 18.9444 17.5425 18.681 17.5425C18.511 17.5425 18.3534 17.4953 18.2137 17.4192C18.1995 17.6604 18.1031 17.8859 17.9311 18.0581C17.7451 18.2441 17.4977 18.3466 17.2341 18.3466C16.7105 18.3466 16.2852 17.9349 16.2546 17.419C16.0926 17.5066 15.9094 17.5525 15.7204 17.5404C15.2053 17.5066 14.8019 17.0615 14.8019 16.5269V12.0952L14.2973 12.9695C14.1051 13.3039 13.7453 13.5115 13.3579 13.5115C13.1692 13.5115 12.9827 13.4619 12.8176 13.3673C12.6119 13.2481 12.4648 13.0567 12.4037 12.8278C12.3422 12.5987 12.374 12.3591 12.4929 12.1537C12.493 12.1537 14.144 9.29484 14.2447 9.11923C14.2566 9.09283 14.2908 9.01625 14.3198 8.95098C14.3475 8.88866 14.3713 8.8247 14.3941 8.76042C14.8919 7.35486 16.1247 6.48175 17.6114 6.48175C19.5421 6.48175 21.1128 8.18497 21.1128 10.2785L21.113 15.69C21.113 15.9534 21.0107 16.2009 20.8249 16.387C20.6389 16.573 20.3914 16.6755 20.1278 16.6755L20.1278 16.6754ZM17.6115 7.0053C16.3339 7.0053 15.3157 7.72689 14.8875 8.93551C14.8602 9.01225 14.8316 9.089 14.7983 9.16378C14.7017 9.38042 14.7017 9.38042 14.6745 9.41158L14.6709 9.40846C14.5361 9.66281 14.1356 10.3563 12.9462 12.4158C12.8973 12.5002 12.8844 12.5983 12.9093 12.6921C12.9346 12.7859 12.9951 12.8649 13.0789 12.9133C13.339 13.0627 13.6952 12.9663 13.8434 12.708L14.837 10.9877C14.8964 10.8852 15.0164 10.8349 15.1316 10.866C15.246 10.8967 15.3256 11.0005 15.3256 11.1189V16.527C15.3256 16.7822 15.5181 17.0024 15.7548 17.018C15.8912 17.0252 16.0185 16.9795 16.1141 16.884C16.201 16.7971 16.2489 16.6813 16.2489 16.5575V13.0205C16.2489 12.8759 16.3661 12.7586 16.5108 12.7586C16.6554 12.7586 16.7727 12.8757 16.7727 13.0205L16.7725 17.3615C16.7725 17.616 16.9796 17.8231 17.2341 17.8231C17.3578 17.8231 17.4739 17.7752 17.561 17.6883C17.6479 17.6012 17.6958 17.4851 17.6958 17.3615V13.0205C17.6958 12.8759 17.8129 12.7586 17.9577 12.7586C18.1023 12.7586 18.2196 12.8757 18.2196 13.0205L18.2194 16.5168V16.5575C18.2194 16.8119 18.4265 17.019 18.6812 17.019C18.8047 17.019 18.9205 16.9709 19.008 16.8837C19.095 16.7969 19.1428 16.6811 19.1428 16.5573V13.0203C19.1428 12.8757 19.2599 12.7584 19.4047 12.7584C19.5494 12.7584 19.6666 12.8755 19.6666 13.0203L19.6663 15.6901C19.6663 15.9448 19.8734 16.1519 20.1278 16.1519C20.2516 16.1519 20.3674 16.1039 20.4543 16.0171C20.5415 15.9299 20.5892 15.8138 20.5892 15.6901L20.5894 10.2787C20.5894 8.47393 19.2535 7.00535 17.6114 7.00535L17.6115 7.0053Z" fill="#103E13"/>
<path d="M9.83761 20.4366L13.638 18.1567C14.0961 17.8815 14.6857 17.9985 14.9796 18.423C15.0868 18.5777 15.1416 18.7579 15.1501 18.9414C15.2918 18.8675 15.446 18.8273 15.6029 18.8273C15.6833 18.8273 15.7639 18.8373 15.8436 18.8571C16.099 18.9209 16.3141 19.0805 16.4494 19.3061C16.5849 19.5321 16.6244 19.797 16.5606 20.052C16.5018 20.288 16.3583 20.4866 16.1587 20.6229C16.2982 20.7052 16.4186 20.8175 16.5042 20.9605C16.6397 21.1865 16.6792 21.4512 16.6156 21.7066C16.5518 21.9616 16.3922 22.1767 16.1662 22.3124L16.1649 22.3132C16.302 22.3953 16.4203 22.5065 16.5049 22.6474C16.6405 22.8734 16.68 23.1382 16.6162 23.3935C16.5523 23.6487 16.3927 23.8639 16.1671 23.9993L11.5268 26.7831C10.6607 27.3025 9.65955 27.4818 8.70807 27.2874C7.74806 27.0913 6.95301 26.5395 6.46958 25.7336C5.70455 24.4585 5.8192 22.9521 6.76822 21.8023C6.81168 21.7499 6.85448 21.6964 6.89334 21.641C6.93451 21.5824 6.98256 21.5135 6.99895 21.4899C7.09718 21.3144 8.70007 18.4265 8.6999 18.4269C8.86176 18.1348 9.16514 17.9695 9.47804 17.9696C9.62399 17.9696 9.77208 18.0056 9.90869 18.0813C10.0737 18.1735 10.2122 18.3078 10.3092 18.4697C10.5084 18.8017 10.5155 19.2173 10.3279 19.5536L9.83761 20.4366ZM9.86041 18.7389C9.80957 18.6541 9.73971 18.5865 9.65427 18.5386C9.47765 18.4409 9.25527 18.5045 9.15804 18.6805C8.01109 20.7468 7.62011 21.451 7.46922 21.7016L7.47267 21.7024C7.46004 21.7444 7.46004 21.7444 7.32196 21.9417C7.27506 22.0084 7.22406 22.0725 7.17207 22.1357C6.35603 23.1244 6.26127 24.3686 6.91838 25.4642C7.3254 26.1428 7.99811 26.6081 8.81265 26.7743C9.63604 26.9418 10.5039 26.786 11.2571 26.334L15.8978 23.5501C16.0038 23.4867 16.0786 23.3858 16.1084 23.2663C16.1382 23.1469 16.1197 23.0227 16.0561 22.9168C15.9252 22.6987 15.641 22.627 15.4229 22.7584L13.1336 24.1318C13.0096 24.2063 12.8486 24.1663 12.7743 24.0421C12.6998 23.9181 12.74 23.7573 12.864 23.6828L15.1535 22.3094L15.897 21.8633C16.003 21.7997 16.0779 21.6988 16.1078 21.5796C16.1376 21.46 16.1191 21.3357 16.0554 21.23C15.9244 21.0117 15.6402 20.9407 15.4223 21.0715L12.3892 22.8911C12.2649 22.9657 12.1044 22.9253 12.0299 22.8013C11.9555 22.6774 11.9958 22.5165 12.1196 22.442L15.8421 20.209C15.948 20.1453 16.0228 20.0446 16.0527 19.9251C16.0825 19.8057 16.064 19.6816 16.0005 19.5756C15.937 19.4699 15.8362 19.3951 15.7166 19.3652C15.5964 19.3354 15.4728 19.3539 15.3672 19.4172L14.6781 19.8306C14.6779 19.8306 14.6779 19.8308 14.6777 19.8308H14.6776L11.6447 21.6503C11.5204 21.7251 11.3597 21.6848 11.2854 21.5606C11.211 21.4366 11.2513 21.2758 11.3751 21.2013L14.4081 19.3818C14.5141 19.3182 14.589 19.2173 14.6189 19.0981C14.6517 18.9672 14.6267 18.8334 14.549 18.7212C14.4142 18.5263 14.1259 18.4744 13.9073 18.6058L9.26998 21.3878C9.16846 21.4484 9.03842 21.4337 8.9533 21.3515C8.86803 21.2692 8.84884 21.1398 8.90624 21.0363L9.87052 19.299C9.96728 19.1253 9.96351 18.9108 9.86036 18.7389L9.86041 18.7389Z" fill="#103E13"/>
<path d="M27.9971 25.7334C27.5138 26.5394 26.7189 27.0911 25.7587 27.2872C24.8071 27.4813 23.8062 27.3023 22.94 26.783L18.2993 23.999C18.0735 23.8636 17.9138 23.6484 17.8498 23.3929C17.7864 23.1379 17.826 22.873 17.9613 22.6474C18.0458 22.5064 18.1642 22.3952 18.3015 22.313L18.3001 22.3122C18.0743 22.1767 17.9146 21.9616 17.851 21.7064C17.787 21.4512 17.8267 21.1862 17.9622 20.9602C18.0494 20.8151 18.169 20.7016 18.3054 20.6211C18.1073 20.4848 17.9646 20.2869 17.9059 20.052C17.842 19.7967 17.8816 19.5318 18.0171 19.3062C18.1524 19.0804 18.3677 18.9208 18.6229 18.857C18.7026 18.837 18.7835 18.8272 18.8635 18.8272C19.0206 18.8273 19.1747 18.8672 19.3164 18.9413C19.3251 18.7578 19.3797 18.5776 19.487 18.4229C19.781 17.9987 20.3701 17.8813 20.8289 18.1566L24.6292 20.4361L24.1393 19.5538C23.9514 19.217 23.9583 18.8014 24.1575 18.4691C24.2546 18.3075 24.3933 18.1731 24.5591 18.0802C24.6954 18.0047 24.843 17.969 24.9886 17.969C25.3013 17.9691 25.6051 18.1341 25.7667 18.4262C26.3302 19.4415 27.3935 21.3563 27.4683 21.4899C27.4842 21.5131 27.5323 21.5819 27.5734 21.6405C27.6126 21.6961 27.6549 21.7492 27.6987 21.802C28.6476 22.9522 28.762 24.4585 27.997 25.7334L27.9971 25.7334ZM27.2947 22.1358C27.2425 22.0726 27.1914 22.0082 27.1448 21.9418C27.0031 21.7407 26.9995 21.7354 26.9889 21.6828C26.8232 21.4088 26.4192 20.6813 25.3084 18.6802C25.211 18.5046 24.9896 18.4405 24.8133 18.5379C24.7266 18.5864 24.6569 18.6542 24.6061 18.739C24.5031 18.9107 24.4991 19.1252 24.5964 19.2993L25.5603 21.0362C25.6179 21.1398 25.5987 21.269 25.5136 21.3514C25.4286 21.4339 25.2988 21.4483 25.1968 21.3876L20.5594 18.6056C20.3408 18.4746 20.0527 18.5259 19.9176 18.7211C19.8398 18.8333 19.8151 18.9671 19.8475 19.0978C19.8774 19.2172 19.9523 19.3178 20.0584 19.3815C20.0587 19.3816 20.0589 19.382 20.0592 19.3821L23.0913 21.2011C23.2153 21.2756 23.2555 21.4363 23.181 21.5604C23.1066 21.6843 22.946 21.7248 22.8217 21.6501L19.0992 19.4171C18.9936 19.3538 18.8693 19.3351 18.7499 19.3651C18.6302 19.3949 18.5295 19.4697 18.4661 19.5758C18.4024 19.6816 18.3841 19.8057 18.4136 19.9251C18.4434 20.0445 18.5184 20.1454 18.6243 20.209L19.3487 20.6434L22.3466 22.4421C22.4706 22.5166 22.5108 22.6773 22.4363 22.8014C22.3619 22.9252 22.2013 22.9656 22.077 22.8911L19.0443 21.0716C18.8262 20.9404 18.5422 21.0116 18.411 21.23C18.3473 21.336 18.329 21.4601 18.3585 21.5795C18.3883 21.6989 18.4633 21.7996 18.5694 21.8634L19.3129 22.3094L21.6021 23.6829C21.7261 23.7573 21.7662 23.918 21.6918 24.0422C21.6173 24.166 21.4568 24.2067 21.3325 24.1319L19.0433 22.7584C18.9377 22.6951 18.8139 22.6764 18.6939 22.7064C18.5745 22.7363 18.4735 22.8111 18.41 22.9168C18.3465 23.0228 18.328 23.1471 18.3575 23.2663C18.3874 23.3857 18.4623 23.4864 18.5684 23.5502L23.2091 26.3341C23.9622 26.7859 24.8307 26.9423 25.6536 26.7744C26.468 26.6081 27.1407 26.1429 27.5477 25.4643C28.2055 24.3685 28.1108 23.1241 27.295 22.1357L27.2947 22.1358Z" fill="#103E13"/>
</svg>
