<svg width="34" height="34" viewBox="0 0 34 34" fill="none" xmlns="http://www.w3.org/2000/svg">
<g clip-path="url(#clip0_2001_4037)">
<path d="M32.4503 26.9085L32.4503 26.9085C32.5816 26.8175 32.6934 26.7013 32.7794 26.5667L33.0727 26.754L32.7794 26.5667C32.8653 26.4321 32.9237 26.2818 32.951 26.1244C32.9783 25.967 32.9741 25.8058 32.9386 25.6501L33.2779 25.5727L32.9386 25.6501C32.903 25.4944 32.8369 25.3473 32.744 25.2174L32.7425 25.2152C31.4354 23.3573 29.6544 21.8834 27.5848 20.9468L27.0801 20.7184L27.5049 20.3628C28.7647 19.3084 29.6689 17.8912 30.0944 16.3044C30.5199 14.7176 30.4461 13.0382 29.8829 11.4949C29.3197 9.95157 28.2945 8.61932 26.947 7.67953C25.5995 6.73973 23.995 6.23807 22.3522 6.24284L22.3506 6.24285C21.6195 6.24163 20.8918 6.34258 20.1886 6.54278L20.1823 6.54455L20.1823 6.5445C20.0261 6.58583 19.8797 6.65782 19.7516 6.75627C19.6235 6.85473 19.5163 6.97769 19.4362 7.11798C19.3561 7.25828 19.3046 7.41312 19.2849 7.57347C19.2652 7.73383 19.2776 7.89651 19.3214 8.05203C19.3651 8.20755 19.4394 8.35282 19.5398 8.47937L19.2672 8.69573L19.5398 8.47937C19.6403 8.60592 19.7649 8.71122 19.9064 8.78914L19.7386 9.09402L19.9064 8.78914C20.048 8.86707 20.2036 8.91606 20.3642 8.93327C20.5249 8.95048 20.6873 8.93556 20.8421 8.88938L20.8461 8.88819L20.8462 8.88821C21.3358 8.74852 21.8426 8.67813 22.3518 8.67909M32.4503 26.9085L22.3512 9.02712M32.4503 26.9085L32.4463 26.9114C32.2431 27.0566 31.9995 27.1343 31.7497 27.1336C31.5544 27.1324 31.3621 27.0848 31.1889 26.9946C31.0157 26.9045 30.8664 26.7745 30.7534 26.6153M32.4503 26.9085L30.4691 26.816M22.3518 8.67909L22.3512 9.02712M22.3518 8.67909C22.3516 8.67909 22.3514 8.67909 22.3512 8.67909V9.02712M22.3518 8.67909C23.8285 8.67926 25.2446 9.26593 26.2887 10.3101C27.333 11.3544 27.9197 12.7708 27.9197 14.2476C27.9197 15.7245 27.333 17.1409 26.2887 18.1852C25.2444 19.2295 23.828 19.8162 22.3512 19.8162C22.0281 19.8162 21.7183 19.9445 21.4898 20.173C21.2614 20.4014 21.133 20.7113 21.133 21.0343C21.133 21.3574 21.2614 21.6672 21.4898 21.8957C21.7183 22.1241 22.0281 22.2524 22.3512 22.2524H22.3516C23.999 22.2543 25.6219 22.6515 27.0839 23.4107C28.5459 24.1699 29.8043 25.2688 30.7534 26.6153M22.3512 9.02712C23.7357 9.02712 25.0636 9.57714 26.0426 10.5562C27.0217 11.5352 27.5717 12.8631 27.5717 14.2476C27.5717 15.6322 27.0217 16.9601 26.0426 17.9391C25.0636 18.9181 23.7357 19.4682 22.3512 19.4682C21.9358 19.4682 21.5374 19.6332 21.2437 19.9269C20.95 20.2206 20.785 20.619 20.785 21.0343C20.785 21.4497 20.95 21.848 21.2437 22.1418C21.5374 22.4355 21.9358 22.6005 22.3512 22.6005C23.9429 22.6022 25.5109 22.986 26.9236 23.7196C28.3362 24.4531 29.5521 25.515 30.4691 26.816M30.7534 26.6153C30.7532 26.6151 30.7531 26.6149 30.753 26.6147L30.4691 26.816M30.7534 26.6153C30.7534 26.6154 30.7535 26.6154 30.7536 26.6155L30.4691 26.816M16.8674 20.3634L16.4447 20.719L16.948 20.9468C19.0176 21.8834 20.7986 23.3573 22.1057 25.2152L22.1107 25.2223L22.116 25.2291C22.2175 25.3592 22.2916 25.5086 22.3336 25.6681C22.3757 25.8277 22.3849 25.9942 22.3607 26.1574C22.3365 26.3206 22.2793 26.4772 22.1928 26.6177C22.1062 26.7582 21.992 26.8796 21.857 26.9747C21.7221 27.0697 21.5693 27.1363 21.4078 27.1704C21.2464 27.2045 21.0797 27.2055 20.9178 27.1733C20.756 27.1411 20.6024 27.0763 20.4663 26.9829C20.3303 26.8895 20.2146 26.7694 20.1264 26.63L20.1219 26.6229L20.1171 26.6161C19.1699 25.267 17.9119 24.1659 16.4493 23.4057C14.9868 22.6455 13.3627 22.2487 11.7144 22.2487C10.066 22.2487 8.44194 22.6455 6.97937 23.4057C5.5168 24.1659 4.25877 25.267 3.3116 26.6161L3.31083 26.6172C3.19949 26.7771 3.05103 26.9076 2.87819 26.9975C2.70534 27.0875 2.51327 27.1342 2.31842 27.1336L2.31628 27.1336C2.06639 27.1344 1.82256 27.0567 1.61926 26.9114L1.61759 26.9102C1.35407 26.7242 1.17509 26.4413 1.11991 26.1235C1.06474 25.8058 1.13779 25.4791 1.32304 25.2152C2.63014 23.3573 4.41109 21.8834 6.48071 20.9468L6.98402 20.719L6.56127 20.3634C5.30484 19.3064 4.40382 17.8887 3.98036 16.3023C3.55691 14.716 3.6315 13.0378 4.19403 11.4953C4.75655 9.9528 5.7798 8.62058 7.12505 7.67925C8.4703 6.73793 10.0725 6.23304 11.7144 6.23304C13.3562 6.23304 14.9584 6.73793 16.3037 7.67925C17.6489 8.62058 18.6722 9.9528 19.2347 11.4953C19.7972 13.0378 19.8718 14.716 19.4484 16.3023C19.0249 17.8887 18.1239 19.3064 16.8674 20.3634ZM7.08427 11.1539C6.47239 12.0697 6.1458 13.1463 6.1458 14.2476C6.1458 15.7245 6.73249 17.1409 7.77679 18.1852C8.8211 19.2295 10.2375 19.8162 11.7144 19.8162C12.8157 19.8162 13.8923 19.4896 14.8081 18.8777C15.7238 18.2658 16.4376 17.3962 16.859 16.3786C17.2805 15.3611 17.3908 14.2415 17.1759 13.1613C16.9611 12.0811 16.4307 11.0889 15.6519 10.3101C14.8731 9.5313 13.8809 9.00095 12.8007 8.78609C11.7205 8.57122 10.6009 8.6815 9.58336 9.10297C8.56584 9.52444 7.69615 10.2382 7.08427 11.1539Z" fill="#4CAF4F" stroke="#4CAF4F" stroke-width="0.696069"/>
</g>
<defs>
<clipPath id="clip0_2001_4037">
<rect width="33.4113" height="33.4113" fill="white" transform="translate(0.228516 0.152222)"/>
</clipPath>
</defs>
</svg>
