<svg width="308" height="299" viewBox="0 0 308 299" fill="none" xmlns="http://www.w3.org/2000/svg">
<path d="M259.447 298.29C259.447 298.391 209.491 298.477 147.888 298.477C86.2857 298.477 36.3086 298.391 36.3086 298.29C36.3086 298.189 86.257 298.103 147.888 298.103C209.52 298.103 259.447 298.196 259.447 298.29Z" fill="#263238"/>
<path d="M210.772 210.22C199.657 202.458 197.139 188.048 197.578 175.092C197.65 172.933 197.413 170.646 198.441 168.754C199.47 166.862 201.873 165.559 203.808 166.466C205.412 167.221 206.11 169.092 207.009 170.638C208.209 172.699 209.968 174.377 212.081 175.48C213.455 176.2 215.16 176.631 216.52 175.883C218.39 174.854 218.606 172.286 218.592 170.128C218.592 166.113 218.568 162.104 218.52 158.099C218.391 155.949 218.609 153.792 219.167 151.711C219.836 149.668 221.326 147.776 223.362 147.2C225.397 146.625 227.937 147.812 228.397 149.912C228.477 150.802 228.498 151.696 228.462 152.589C228.52 153.488 228.937 154.473 229.779 154.747C230.62 155.02 231.498 154.394 232.145 153.761C234.361 151.603 235.872 148.79 237.275 146.013C238.678 143.236 240.052 140.38 242.066 138.013C244.08 135.647 246.865 133.769 249.98 133.589C253.095 133.409 256.339 135.323 257.116 138.344C257.893 141.366 256.13 144.452 254.238 146.905C251.383 150.547 248.018 153.757 244.246 156.437C243.51 156.839 242.922 157.467 242.57 158.229C242.102 159.668 243.462 161.106 244.879 161.56C246.483 162.092 248.224 161.926 249.915 162.128C251.605 162.329 253.404 163.063 254.044 164.646C254.922 166.847 253.08 169.149 251.274 170.66C247.649 173.682 243.532 176.059 239.102 177.689C237.519 178.264 235.858 178.775 234.577 179.883C233.297 180.991 232.534 182.926 233.304 184.444C234.073 185.962 236.052 186.444 237.714 186.134C239.376 185.825 240.85 184.933 242.433 184.336C245.39 183.221 249.203 183.422 251.066 185.976C251.643 186.856 252.008 187.858 252.133 188.902C252.258 189.947 252.139 191.007 251.785 191.998C251.065 193.97 249.957 195.778 248.526 197.314C243.815 202.944 237.692 207.221 230.786 209.709C223.93 212.083 217.578 212.731 210.765 210.235" fill="#4CAF4F"/>
<path d="M253.951 135.366C253.951 135.366 253.886 135.438 253.742 135.567L253.102 136.136C252.541 136.639 251.713 137.373 250.67 138.344C247.713 141.09 244.966 144.056 242.455 147.215C240.85 149.207 239.189 151.466 237.419 153.919C235.649 156.373 233.822 159.02 232.009 161.833C230.076 164.799 228.306 167.868 226.707 171.027C225.872 172.674 225.139 174.394 224.383 176.149L222.153 181.509C219.213 188.26 216.653 195.169 214.484 202.206C212.737 207.963 211.533 213.871 210.887 219.853C210.469 223.89 210.401 227.955 210.686 232.004C210.801 233.443 210.909 234.543 211.009 235.291C211.053 235.651 211.081 235.939 211.11 236.148V236.443C211.079 236.349 211.057 236.253 211.045 236.155C211.009 235.946 210.966 235.666 210.909 235.306C210.779 234.586 210.642 233.45 210.513 232.011C210.166 227.955 210.19 223.876 210.585 219.824C211.191 213.817 212.369 207.881 214.103 202.098C216.254 195.042 218.807 188.115 221.75 181.35L224.038 176.012C224.793 174.264 225.534 172.53 226.376 170.876C227.986 167.708 229.771 164.631 231.721 161.66C233.563 158.783 235.419 156.178 237.167 153.747C238.915 151.315 240.606 149.042 242.203 147.056C244.74 143.906 247.523 140.961 250.526 138.251C251.591 137.294 252.44 136.575 253.016 136.093L253.685 135.553C253.767 135.482 253.856 135.419 253.951 135.366Z" fill="#263238"/>
<path d="M226.469 170.861C226.367 170.565 226.297 170.259 226.26 169.948C226.145 169.351 226.015 168.509 225.864 167.416C225.555 165.257 225.238 162.301 224.9 159.027C224.562 155.754 224.181 152.79 223.864 150.653C223.699 149.589 223.555 148.733 223.454 148.135C223.376 147.83 223.335 147.516 223.332 147.2C223.456 147.488 223.545 147.79 223.598 148.099C223.756 148.689 223.936 149.538 224.138 150.61C224.548 152.768 224.951 155.704 225.289 158.984C225.627 162.265 225.915 165.142 226.138 167.38C226.246 168.387 226.339 169.243 226.411 169.926C226.467 170.235 226.486 170.549 226.469 170.861Z" fill="#263238"/>
<path d="M254.152 165.696C253.802 165.772 253.446 165.816 253.088 165.826C252.368 165.89 251.347 165.977 250.081 166.121C247.548 166.394 244.066 166.898 240.246 167.617C236.426 168.336 232.995 169.149 230.527 169.775C229.297 170.092 228.304 170.38 227.649 170.574C227.3 170.698 226.938 170.785 226.57 170.833C226.903 170.666 227.249 170.528 227.606 170.423C228.282 170.185 229.261 169.854 230.484 169.502C232.937 168.782 236.369 167.926 240.203 167.193C243.451 166.571 246.729 166.115 250.023 165.826C251.296 165.718 252.325 165.675 253.044 165.66C253.414 165.635 253.785 165.647 254.152 165.696Z" fill="#263238"/>
<path d="M214.456 201.595C214.379 201.49 214.316 201.377 214.269 201.256L213.794 200.256C213.384 199.386 212.83 198.098 212.168 196.523C210.83 193.357 209.125 188.926 207.312 184.005C205.499 179.084 203.83 174.653 202.564 171.451C201.945 169.898 201.434 168.624 201.053 167.675L200.65 166.646C200.594 166.527 200.556 166.401 200.535 166.272C200.612 166.376 200.675 166.49 200.722 166.61L201.197 167.61C201.6 168.48 202.161 169.768 202.823 171.344C204.161 174.509 205.866 178.94 207.679 183.861C209.492 188.782 211.161 193.213 212.427 196.415C213.046 197.969 213.556 199.242 213.93 200.192C214.096 200.602 214.233 200.911 214.341 201.22C214.396 201.339 214.435 201.465 214.456 201.595Z" fill="#263238"/>
<path d="M251.202 189.746C251.087 189.812 250.963 189.863 250.835 189.897L249.77 190.257L245.835 191.53C242.511 192.609 237.921 194.149 232.886 195.847C227.85 197.544 223.238 199.055 219.893 200.062C218.224 200.573 216.864 200.962 215.922 201.221L214.836 201.501C214.709 201.541 214.579 201.568 214.447 201.58C214.562 201.514 214.686 201.463 214.814 201.429L215.879 201.069L219.814 199.796C223.138 198.717 227.727 197.177 232.763 195.48C237.799 193.782 242.403 192.271 245.749 191.264C247.425 190.753 248.777 190.365 249.727 190.106L250.813 189.825C250.94 189.785 251.07 189.758 251.202 189.746Z" fill="#263238"/>
<path d="M236.211 15.2395L232.506 16.5632L230.916 11.7216C227.995 2.79381 218.686 -1.94708 210.132 1.06723C201.579 4.08154 197.025 13.8727 199.946 22.8005L201.535 27.6421L197.816 28.973C196.398 29.5231 195.246 30.5986 194.6 31.9759C193.955 33.3532 193.864 34.9264 194.349 36.3685L204.658 67.8713C204.872 68.5852 205.227 69.2488 205.702 69.8226C206.178 70.3965 206.764 70.8689 207.426 71.2118C208.087 71.5547 208.811 71.7612 209.554 71.8188C210.297 71.8765 211.044 71.7842 211.751 71.5475L250.146 57.814C251.583 57.2649 252.751 56.1798 253.404 54.7872C254.058 53.3945 254.145 51.8027 253.649 50.3466L243.333 18.8438C243.113 18.1319 242.753 17.4715 242.272 16.9021C241.792 16.3326 241.202 15.8658 240.537 15.5294C239.872 15.193 239.147 14.994 238.403 14.9442C237.66 14.8944 236.914 14.9948 236.211 15.2395ZM206.945 20.2754C206.158 17.954 206.299 15.4179 207.34 13.1985C208.38 10.979 210.24 9.2484 212.528 8.36921C213.658 7.98262 214.854 7.82759 216.045 7.91338C217.236 7.99917 218.398 8.32401 219.461 8.86852C220.524 9.41304 221.466 10.1661 222.231 11.0827C222.997 11.9993 223.57 13.0607 223.916 14.2036L225.499 19.0452L208.528 25.117L206.945 20.2754ZM228.528 48.2315L231.161 56.2745C231.209 56.4357 231.193 56.6094 231.117 56.7595C231.041 56.9095 230.909 57.0244 230.751 57.0802L227.06 58.3967C226.913 58.4374 226.756 58.4197 226.622 58.3473C226.488 58.2749 226.387 58.1534 226.341 58.0082L223.686 50.0012C222.222 49.9215 220.818 49.3965 219.661 48.4965C218.503 47.5965 217.649 46.3645 217.211 44.9654C216.586 43.1158 216.7 41.0958 217.53 39.3284C218.36 37.561 219.841 36.1833 221.664 35.4836C222.564 35.1761 223.517 35.0529 224.466 35.1215C225.415 35.19 226.34 35.4488 227.186 35.8825C228.033 36.3161 228.783 36.9158 229.393 37.6457C230.003 38.3756 230.46 39.2208 230.736 40.131C231.199 41.5522 231.237 43.0776 230.846 44.5202C230.455 45.9629 229.652 47.2601 228.535 48.2531L228.528 48.2315Z" fill="#4CAF4F"/>
<path d="M232.34 16.4769C232.34 16.5776 225.469 19.1603 216.923 22.2322C208.376 25.304 201.405 27.7716 201.369 27.6997C201.333 27.6277 208.24 25.0235 216.793 21.9444C225.347 18.8654 232.304 16.3834 232.34 16.4769Z" fill="#263238"/>
<path d="M240.498 17.8007C240.53 17.8631 240.557 17.9281 240.578 17.9949C240.635 18.1388 240.7 18.3258 240.786 18.556C240.973 19.0812 241.232 19.8078 241.556 20.7143L244.318 28.7572C245.469 32.1672 246.844 36.2103 248.369 40.6994C249.088 42.9511 249.937 45.2964 250.728 47.7639C251.152 49.0355 251.335 50.3749 251.268 51.7135C251.207 52.4096 251.009 53.0869 250.685 53.7062C250.339 54.3235 249.878 54.8682 249.325 55.3105C248.214 56.1218 246.98 56.7508 245.671 57.1738L241.966 58.5047L234.952 61.0154L223.074 65.2455L215.053 68.0656L212.895 68.785L212.319 68.972C212.258 68.9994 212.192 69.0164 212.125 69.0224C212.125 69.0224 212.183 69.0224 212.305 68.9361L212.866 68.713L215.024 67.9001L223.002 64.9649L234.858 60.6485L241.858 58.1162L245.563 56.7781C246.835 56.3723 248.033 55.7625 249.11 54.9724C249.624 54.562 250.053 54.0564 250.376 53.4832C250.68 52.9104 250.864 52.2811 250.915 51.6343C250.982 50.3446 250.806 49.0538 250.397 47.8287C249.62 45.3827 248.8 43.0159 248.059 40.7641C246.563 36.2678 245.182 32.2104 244.088 28.8004C242.995 25.3904 242.074 22.6495 241.441 20.7214C241.139 19.779 240.908 19.0452 240.721 18.5129L240.549 17.9373C240.527 17.8938 240.51 17.8479 240.498 17.8007Z" fill="#263238"/>
<path d="M220.24 7.88008C220.24 7.88008 219.859 7.69304 219.153 7.40527C218.149 7.01915 217.086 6.80512 216.01 6.7722C214.415 6.7175 212.827 7.01726 211.362 7.64987C209.581 8.4376 208.057 9.71174 206.967 11.326C205.869 12.9357 205.28 14.838 205.276 16.7863C205.291 18.3832 205.533 19.9698 205.996 21.4984C206.37 22.8078 206.758 23.8509 207.017 24.5775C207.17 24.9466 207.295 25.3265 207.391 25.7142C207.187 25.3691 207.016 25.0054 206.88 24.6279C206.585 23.9085 206.161 22.8869 205.744 21.5704C205.232 20.0257 204.953 18.4133 204.916 16.7863C204.897 14.7644 205.5 12.7854 206.643 11.1174C207.771 9.44415 209.357 8.13061 211.211 7.33333C212.722 6.69726 214.359 6.41667 215.995 6.51321C217.095 6.56924 218.175 6.82521 219.182 7.26858C219.452 7.39287 219.711 7.53715 219.959 7.70023C220.062 7.74519 220.156 7.80587 220.24 7.88008Z" fill="#263238"/>
<path d="M220.571 36.0304C220.686 35.9609 220.806 35.9007 220.931 35.8506C221.291 35.6881 221.664 35.5557 222.046 35.4549C222.652 35.2759 223.278 35.1697 223.909 35.1384C224.768 35.0922 225.627 35.222 226.434 35.5197C228.276 36.1671 229.966 38.0448 230.801 40.5555C231.201 41.9029 231.201 43.3375 230.801 44.6849C230.357 46.1473 229.562 47.4786 228.484 48.5625L228.528 48.3683C229.484 50.9941 230.528 53.8429 231.607 56.8141L231.671 56.9939L231.492 57.0587L229.844 57.6054L226.247 58.8068L226.067 58.8644L226.01 58.6845C225.024 55.7062 223.945 52.9293 223.132 50.2027L223.29 50.325C221.884 50.2082 220.543 49.6803 219.434 48.8071C218.431 48.0346 217.609 47.0525 217.024 45.9295C216.497 44.9335 216.234 43.8188 216.262 42.6921C216.295 41.5407 216.583 40.4109 217.104 39.3835C217.625 38.3562 218.367 37.4569 219.276 36.7498C219.65 36.446 220.07 36.2032 220.521 36.0304C220.114 36.2715 219.72 36.5333 219.341 36.8146C218.342 37.6598 217.576 38.7472 217.118 39.9728C216.724 40.897 216.54 41.8968 216.579 42.9006C216.617 43.9043 216.878 44.8871 217.341 45.7784C217.916 46.8588 218.718 47.8014 219.693 48.5409C220.751 49.3709 222.029 49.8713 223.369 49.9797H223.492L223.528 50.0876C224.319 52.7638 225.405 55.5623 226.405 58.5551L226.168 58.4399L229.765 57.2385L231.405 56.6846L231.29 56.9292C230.218 53.958 229.182 51.102 228.233 48.4762V48.3683L228.319 48.2819C229.365 47.243 230.145 45.9672 230.592 44.5626C230.974 43.2737 230.974 41.9019 230.592 40.6131C229.808 38.1959 228.189 36.3614 226.434 35.7139C225.657 35.4143 224.828 35.2748 223.995 35.3038C223.374 35.3181 222.756 35.4025 222.154 35.5556C221.082 35.8218 220.578 36.0664 220.571 36.0304Z" fill="#263238"/>
<path d="M198.333 243.752L126.472 243.421C122.322 243.398 118.351 241.729 115.43 238.78C112.51 235.832 110.879 231.845 110.897 227.695L111.659 47.5481C111.668 45.4921 112.081 43.4579 112.876 41.5618C113.671 39.6657 114.832 37.9449 116.293 36.4978C117.753 35.0506 119.485 33.9055 121.388 33.1279C123.291 32.3503 125.329 31.9554 127.385 31.9658L199.24 32.2967C203.39 32.3176 207.362 33.9848 210.283 36.9321C213.205 39.8794 214.837 43.8658 214.822 48.0157L214.059 228.155C214.051 230.212 213.637 232.247 212.843 234.144C212.048 236.04 210.887 237.762 209.427 239.21C207.966 240.659 206.235 241.805 204.332 242.584C202.428 243.364 200.39 243.76 198.333 243.752Z" fill="#455A64"/>
<path d="M199.131 38.4908H185.203C184.749 38.4992 184.3 38.5971 183.884 38.7788C183.467 38.9605 183.09 39.2225 182.775 39.5499C182.46 39.8772 182.212 40.2635 182.046 40.6866C181.88 41.1097 181.799 41.5614 181.808 42.0159V44.541C181.816 44.9951 181.735 45.4464 181.569 45.8691C181.403 46.2918 181.155 46.6776 180.84 47.0044C180.524 47.3311 180.147 47.5925 179.731 47.7734C179.314 47.9544 178.866 48.0514 178.412 48.0589L151.262 47.9366C150.343 47.9121 149.472 47.5241 148.839 46.8577C148.207 46.1914 147.864 45.3012 147.888 44.3827V41.8576C147.911 40.9403 147.57 40.0512 146.938 39.385C146.307 38.7189 145.438 38.3301 144.521 38.3037H139.622L127.428 38.2462C124.527 38.2289 121.738 39.3616 119.671 41.3963C117.604 43.4309 116.428 46.2017 116.399 49.102L115.68 224.939C115.673 226.378 115.95 227.804 116.495 229.136C117.039 230.468 117.841 231.679 118.853 232.702C119.866 233.724 121.07 234.536 122.397 235.093C123.724 235.65 125.147 235.94 126.586 235.946L198.296 236.277C199.736 236.284 201.163 236.007 202.496 235.462C203.829 234.917 205.041 234.115 206.064 233.102C207.087 232.088 207.9 230.883 208.457 229.556C209.014 228.228 209.304 226.804 209.311 225.364L210.03 49.5265C210.047 46.618 208.909 43.8217 206.865 41.7523C204.821 39.6829 202.039 38.5098 199.131 38.4908Z" fill="white"/>
<path d="M189.485 212.817L136.163 212.587C135.609 212.587 135.163 211.983 135.17 211.249L135.228 197.3C135.228 196.58 135.681 195.962 136.235 195.962L189.557 196.206C189.864 196.259 190.139 196.429 190.324 196.68C190.509 196.93 190.59 197.243 190.55 197.552L190.5 211.486C190.5 212.227 190.039 212.825 189.485 212.817Z" fill="#4CAF4F"/>
<path d="M152.374 206.14C152.08 206.14 151.797 206.093 151.525 205.999C151.257 205.901 151.05 205.776 150.903 205.625L151.067 205.302C151.206 205.438 151.393 205.553 151.627 205.648C151.865 205.738 152.114 205.784 152.374 205.784C152.623 205.784 152.825 205.753 152.98 205.693C153.138 205.629 153.253 205.544 153.325 205.438C153.401 205.333 153.438 205.216 153.438 205.087C153.438 204.933 153.393 204.808 153.303 204.714C153.216 204.62 153.101 204.546 152.957 204.493C152.814 204.437 152.655 204.387 152.482 204.346C152.308 204.304 152.135 204.261 151.961 204.216C151.788 204.167 151.627 204.103 151.48 204.023C151.337 203.944 151.22 203.84 151.129 203.712C151.042 203.58 150.999 203.408 150.999 203.197C150.999 203.001 151.05 202.822 151.152 202.659C151.257 202.493 151.418 202.361 151.633 202.263C151.848 202.161 152.123 202.11 152.459 202.11C152.682 202.11 152.903 202.142 153.121 202.207C153.34 202.267 153.529 202.352 153.687 202.461L153.546 202.795C153.376 202.682 153.195 202.599 153.003 202.546C152.814 202.493 152.631 202.467 152.454 202.467C152.216 202.467 152.02 202.499 151.865 202.563C151.71 202.627 151.595 202.714 151.52 202.823C151.448 202.929 151.412 203.05 151.412 203.186C151.412 203.34 151.456 203.465 151.542 203.559C151.633 203.654 151.75 203.727 151.893 203.78C152.04 203.833 152.201 203.88 152.374 203.921C152.548 203.963 152.72 204.008 152.889 204.057C153.063 204.106 153.221 204.171 153.365 204.25C153.512 204.325 153.629 204.427 153.716 204.555C153.806 204.684 153.852 204.852 153.852 205.059C153.852 205.252 153.799 205.431 153.693 205.597C153.587 205.759 153.425 205.891 153.206 205.993C152.991 206.091 152.714 206.14 152.374 206.14ZM154.764 206.106V202.144H155.183V206.106H154.764ZM156.472 206.106V202.144H156.817L159.551 205.585H159.37V202.144H159.783V206.106H159.438L156.71 202.665H156.891V206.106H156.472ZM162.814 206.14C162.512 206.14 162.233 206.091 161.976 205.993C161.723 205.891 161.503 205.75 161.314 205.569C161.129 205.387 160.984 205.174 160.878 204.929C160.776 204.684 160.725 204.416 160.725 204.125C160.725 203.835 160.776 203.567 160.878 203.322C160.984 203.076 161.131 202.863 161.32 202.682C161.508 202.501 161.729 202.361 161.982 202.263C162.238 202.161 162.518 202.11 162.82 202.11C163.121 202.11 163.397 202.157 163.646 202.252C163.899 202.346 164.114 202.489 164.291 202.682L164.031 202.948C163.865 202.782 163.682 202.663 163.482 202.591C163.282 202.52 163.067 202.484 162.837 202.484C162.591 202.484 162.365 202.525 162.157 202.608C161.954 202.688 161.774 202.803 161.62 202.954C161.469 203.101 161.35 203.274 161.263 203.474C161.18 203.671 161.139 203.888 161.139 204.125C161.139 204.359 161.18 204.576 161.263 204.776C161.35 204.976 161.469 205.152 161.62 205.302C161.774 205.45 161.954 205.565 162.157 205.648C162.365 205.727 162.589 205.767 162.831 205.767C163.057 205.767 163.27 205.733 163.47 205.665C163.674 205.597 163.861 205.482 164.031 205.319L164.269 205.636C164.08 205.802 163.859 205.929 163.606 206.016C163.353 206.099 163.089 206.14 162.814 206.14ZM163.867 205.585V204.125H164.269V205.636L163.867 205.585ZM168.531 206.14C168.026 206.14 167.628 205.995 167.337 205.704C167.047 205.414 166.901 204.984 166.901 204.414V202.144H167.32V204.397C167.32 204.865 167.426 205.21 167.637 205.433C167.848 205.655 168.146 205.767 168.531 205.767C168.92 205.767 169.22 205.655 169.431 205.433C169.643 205.21 169.748 204.865 169.748 204.397V202.144H170.156V204.414C170.156 204.984 170.01 205.414 169.72 205.704C169.433 205.995 169.037 206.14 168.531 206.14ZM171.418 206.106V202.144H172.901C173.237 202.144 173.525 202.199 173.767 202.308C174.008 202.414 174.193 202.569 174.321 202.772C174.453 202.972 174.52 203.216 174.52 203.503C174.52 203.782 174.453 204.023 174.321 204.227C174.193 204.427 174.008 204.582 173.767 204.691C173.525 204.801 173.237 204.855 172.901 204.855H171.65L171.837 204.657V206.106H171.418ZM171.837 204.691L171.65 204.487H172.889C173.286 204.487 173.586 204.403 173.789 204.233C173.997 204.059 174.101 203.816 174.101 203.503C174.101 203.186 173.997 202.94 173.789 202.767C173.586 202.593 173.286 202.506 172.889 202.506H171.65L171.837 202.308V204.691Z" fill="#E8E8E3"/>
<path d="M146.798 90.1803L128.295 90.0963L128.28 93.4919L146.782 93.5758L146.798 90.1803Z" fill="#4CAF4F"/>
<path opacity="0.1" d="M146.798 90.1803L128.295 90.0963L128.28 93.4919L146.782 93.5758L146.798 90.1803Z" fill="black"/>
<path d="M201.039 111.029C201.184 111.014 201.327 110.98 201.463 110.928C201.663 110.85 201.836 110.718 201.963 110.546C202.09 110.374 202.166 110.17 202.183 109.957C202.183 108.813 202.183 107.144 202.183 105C202.183 103.928 202.183 102.727 202.183 101.403C202.183 101.079 202.183 100.741 202.183 100.403C202.23 100.075 202.158 99.7408 201.981 99.4605C201.882 99.3261 201.754 99.2166 201.605 99.1404C201.456 99.0643 201.292 99.0236 201.125 99.0217H200.003H189.608L129.436 98.7987C129.282 98.7961 129.13 98.8307 128.992 98.8995C128.855 98.9684 128.735 99.0696 128.645 99.1943C128.471 99.4757 128.405 99.8104 128.458 100.137C128.458 100.856 128.458 101.576 128.458 102.295C128.458 103.734 128.458 105.173 128.458 106.611C128.458 107.331 128.458 108.05 128.458 108.77C128.428 109.105 128.428 109.442 128.458 109.777C128.496 109.92 128.566 110.054 128.663 110.166C128.761 110.278 128.882 110.366 129.019 110.424C129.161 110.481 129.313 110.508 129.465 110.503H133.127L149.105 110.59L176.155 110.755L194.392 110.899L199.348 110.957H200.636C200.931 110.957 201.075 110.957 201.075 110.957H200.636H199.348H194.392H176.155L149.105 110.87L133.127 110.806H129.465C129.264 110.814 129.063 110.779 128.875 110.705C128.686 110.624 128.517 110.501 128.383 110.345C128.248 110.189 128.151 110.005 128.098 109.806C128.057 109.617 128.042 109.423 128.055 109.23V108.698C128.055 107.978 128.055 107.259 128.055 106.539C128.055 105.101 128.055 103.662 128.055 102.223C128.055 101.504 128.055 100.784 128.055 100.065C128.041 99.8732 128.041 99.6809 128.055 99.4893C128.082 99.2777 128.164 99.0768 128.293 98.9066C128.417 98.7329 128.581 98.5919 128.771 98.4954C128.962 98.3989 129.173 98.35 129.386 98.3526L189.557 98.6836L199.953 98.7555H201.075C201.273 98.7557 201.467 98.8035 201.643 98.8949C201.818 98.9863 201.969 99.1186 202.082 99.2807C202.285 99.5934 202.367 99.9694 202.312 100.338C202.312 100.676 202.312 101.014 202.312 101.338C202.312 102.647 202.312 103.849 202.312 104.935C202.312 107.093 202.262 108.748 202.248 109.899C202.23 110.12 202.15 110.332 202.016 110.509C201.882 110.686 201.7 110.822 201.492 110.899C201.356 110.983 201.199 111.028 201.039 111.029Z" fill="#E0E0E0"/>
<path d="M167.694 102.41H133.854V105.583H167.694V102.41Z" fill="#4CAF4F"/>
<path opacity="0.2" d="M167.694 102.41H133.854V105.583H167.694V102.41Z" fill="white"/>
<path d="M146.671 121.157L128.168 121.073L128.153 124.469L146.655 124.553L146.671 121.157Z" fill="#4CAF4F"/>
<path opacity="0.1" d="M146.671 121.157L128.168 121.073L128.153 124.469L146.655 124.553L146.671 121.157Z" fill="black"/>
<path d="M200.57 142.006C200.715 141.988 200.859 141.962 201.002 141.927C201.203 141.863 201.387 141.757 201.544 141.615C201.7 141.474 201.824 141.3 201.908 141.107C202.021 140.816 202.066 140.504 202.038 140.193C202.038 139.848 202.038 139.474 202.038 139.057C202.038 138.222 202.038 137.272 202.038 136.179V131.611C202.072 131.28 201.999 130.947 201.829 130.661C201.651 130.368 201.372 130.15 201.045 130.05C200.686 129.986 200.322 129.966 199.958 129.992H189.606L129.644 129.769C129.321 129.77 129.01 129.888 128.768 130.101C128.526 130.314 128.369 130.607 128.327 130.927C128.327 131.611 128.327 132.366 128.327 133.085C128.327 134.524 128.327 135.963 128.327 137.402C128.327 138.121 128.327 138.841 128.327 139.56C128.3 139.896 128.315 140.235 128.37 140.567C128.46 140.859 128.645 141.112 128.895 141.287C129.161 141.455 129.473 141.536 129.788 141.517H130.788H132.867L148.787 141.596L175.743 141.762L193.915 141.905L198.858 141.963H193.915H175.743L148.773 141.934L132.852 141.877H129.723C129.334 141.9 128.948 141.796 128.622 141.582C128.295 141.355 128.056 141.022 127.946 140.639C127.881 140.274 127.862 139.902 127.888 139.531C127.888 138.812 127.888 138.093 127.888 137.373C127.888 135.934 127.888 134.495 127.888 133.057C127.888 132.337 127.888 131.618 127.888 130.898C127.941 130.487 128.141 130.109 128.453 129.835C128.764 129.561 129.164 129.409 129.579 129.409L189.541 129.74L199.894 129.819C200.279 129.796 200.666 129.822 201.045 129.898C201.418 130.021 201.734 130.277 201.93 130.618C202.116 130.935 202.196 131.303 202.16 131.668C202.16 132.006 202.16 132.337 202.16 132.668C202.16 133.97 202.16 135.165 202.16 136.265C202.16 137.366 202.16 138.294 202.16 139.143C202.16 139.553 202.16 139.934 202.16 140.287C202.186 140.608 202.134 140.932 202.009 141.229C201.915 141.428 201.78 141.604 201.613 141.745C201.445 141.887 201.249 141.99 201.038 142.049C200.88 142.062 200.722 142.048 200.57 142.006Z" fill="#E0E0E0"/>
<path d="M146.532 153.479L128.029 153.395L128.014 156.791L146.517 156.875L146.532 153.479Z" fill="#4CAF4F"/>
<path opacity="0.1" d="M146.532 153.479L128.029 153.395L128.014 156.791L146.517 156.875L146.532 153.479Z" fill="black"/>
<path d="M200.427 174.315C200.572 174.298 200.717 174.271 200.859 174.236C201.059 174.172 201.243 174.067 201.399 173.927C201.556 173.786 201.68 173.615 201.765 173.423C201.878 173.132 201.922 172.819 201.895 172.509C201.895 172.157 201.895 171.79 201.895 171.365C201.895 170.538 201.895 169.581 201.895 168.488V163.919C201.929 163.589 201.856 163.256 201.686 162.97C201.504 162.682 201.226 162.468 200.902 162.365C200.544 162.299 200.179 162.277 199.816 162.301H189.463L129.501 162.078C129.178 162.078 128.867 162.196 128.625 162.409C128.383 162.622 128.226 162.916 128.184 163.236C128.184 163.955 128.184 164.675 128.184 165.394C128.184 166.833 128.184 168.272 128.184 169.711C128.184 170.43 128.184 171.149 128.184 171.869C128.157 172.203 128.172 172.538 128.227 172.869C128.314 173.162 128.499 173.417 128.753 173.588C129.017 173.761 129.33 173.841 129.645 173.818H132.774L148.695 173.905L175.651 174.07L193.823 174.214L198.765 174.272H193.823H175.651L148.695 174.192L132.774 174.128H129.645C129.255 174.154 128.868 174.05 128.544 173.833C128.217 173.606 127.978 173.273 127.868 172.89C127.803 172.525 127.784 172.153 127.81 171.782C127.81 171.063 127.81 170.344 127.81 169.624C127.81 168.185 127.81 166.747 127.81 165.308C127.81 164.588 127.81 163.869 127.81 163.114C127.861 162.703 128.06 162.325 128.37 162.051C128.68 161.776 129.08 161.625 129.494 161.624L189.456 161.955L199.808 162.034C200.194 162.011 200.581 162.037 200.959 162.114C201.333 162.236 201.648 162.492 201.844 162.833C202.03 163.15 202.111 163.518 202.074 163.883C202.074 164.221 202.074 164.56 202.074 164.883C202.074 166.185 202.074 167.38 202.074 168.48C202.074 169.581 202.074 170.509 202.074 171.358C202.074 171.768 202.074 172.149 202.074 172.502C202.102 172.824 202.05 173.147 201.923 173.444C201.83 173.643 201.695 173.819 201.527 173.96C201.36 174.102 201.164 174.206 200.952 174.264C200.784 174.322 200.604 174.339 200.427 174.315Z" fill="#E0E0E0"/>
<path d="M166.971 134.285L133.131 134.131L133.116 137.304L166.957 137.457L166.971 134.285Z" fill="#4CAF4F"/>
<path opacity="0.2" d="M166.971 134.285L133.131 134.131L133.116 137.304L166.957 137.457L166.971 134.285Z" fill="white"/>
<path d="M136.19 168.444C136.169 168.734 136.064 169.01 135.886 169.24C135.709 169.47 135.469 169.643 135.194 169.737C134.92 169.832 134.624 169.843 134.343 169.771C134.062 169.699 133.808 169.545 133.614 169.33C133.419 169.115 133.292 168.848 133.248 168.561C133.204 168.274 133.245 167.981 133.366 167.717C133.487 167.453 133.683 167.231 133.929 167.078C134.176 166.924 134.462 166.847 134.752 166.854C135.152 166.877 135.528 167.056 135.798 167.354C136.067 167.651 136.208 168.043 136.19 168.444Z" fill="#4CAF4F"/>
<path d="M140.773 168.466C140.787 168.669 140.759 168.872 140.691 169.064C140.624 169.256 140.517 169.431 140.378 169.58C140.24 169.729 140.072 169.847 139.885 169.928C139.699 170.009 139.498 170.051 139.294 170.051C139.091 170.051 138.89 170.009 138.704 169.928C138.517 169.847 138.349 169.729 138.211 169.58C138.072 169.431 137.965 169.256 137.898 169.064C137.83 168.872 137.802 168.669 137.816 168.466C137.802 168.263 137.83 168.06 137.898 167.868C137.965 167.676 138.072 167.501 138.211 167.352C138.349 167.203 138.517 167.085 138.704 167.004C138.89 166.923 139.091 166.881 139.294 166.881C139.498 166.881 139.699 166.923 139.885 167.004C140.072 167.085 140.24 167.203 140.378 167.352C140.517 167.501 140.624 167.676 140.691 167.868C140.759 168.06 140.787 168.263 140.773 168.466Z" fill="#4CAF4F"/>
<path d="M145.364 168.488C145.343 168.777 145.237 169.054 145.06 169.284C144.883 169.513 144.643 169.686 144.368 169.781C144.094 169.875 143.798 169.887 143.517 169.814C143.236 169.742 142.982 169.589 142.787 169.373C142.593 169.158 142.466 168.891 142.421 168.604C142.377 168.317 142.419 168.024 142.54 167.76C142.661 167.497 142.857 167.274 143.103 167.121C143.349 166.968 143.635 166.89 143.925 166.898C144.326 166.922 144.7 167.102 144.969 167.399C145.238 167.696 145.38 168.087 145.364 168.488Z" fill="#4CAF4F"/>
<path d="M149.946 168.509C149.925 168.799 149.819 169.075 149.642 169.305C149.465 169.535 149.225 169.708 148.95 169.802C148.676 169.896 148.38 169.908 148.099 169.836C147.818 169.763 147.564 169.61 147.369 169.395C147.175 169.18 147.048 168.912 147.003 168.626C146.959 168.339 147.001 168.045 147.122 167.782C147.243 167.518 147.439 167.296 147.685 167.143C147.932 166.989 148.217 166.912 148.508 166.919C148.908 166.943 149.282 167.123 149.551 167.421C149.82 167.718 149.962 168.109 149.946 168.509Z" fill="#4CAF4F"/>
<path d="M154.529 168.523C154.509 168.813 154.404 169.091 154.228 169.322C154.052 169.553 153.812 169.726 153.537 169.822C153.263 169.917 152.966 169.93 152.685 169.858C152.403 169.787 152.149 169.634 151.954 169.419C151.758 169.204 151.63 168.936 151.586 168.649C151.541 168.362 151.582 168.069 151.703 167.805C151.824 167.54 152.02 167.318 152.267 167.164C152.513 167.011 152.8 166.933 153.09 166.941C153.489 166.965 153.863 167.144 154.131 167.44C154.4 167.735 154.543 168.124 154.529 168.523Z" fill="#4CAF4F"/>
<path d="M159.119 168.545C159.099 168.833 158.996 169.11 158.821 169.34C158.646 169.57 158.408 169.744 158.136 169.841C157.864 169.938 157.569 169.953 157.288 169.884C157.007 169.815 156.753 169.666 156.556 169.455C156.359 169.243 156.228 168.979 156.179 168.694C156.131 168.409 156.166 168.116 156.282 167.851C156.398 167.587 156.588 167.361 156.83 167.203C157.072 167.045 157.355 166.962 157.644 166.962C158.049 166.977 158.432 167.152 158.708 167.449C158.985 167.746 159.132 168.14 159.119 168.545Z" fill="#4CAF4F"/>
<path d="M163.701 168.567C163.715 168.769 163.687 168.973 163.619 169.165C163.551 169.356 163.445 169.532 163.306 169.681C163.167 169.829 163 169.948 162.813 170.029C162.627 170.11 162.426 170.152 162.222 170.152C162.019 170.152 161.818 170.11 161.631 170.029C161.445 169.948 161.277 169.829 161.138 169.681C161 169.532 160.893 169.356 160.825 169.165C160.757 168.973 160.73 168.769 160.744 168.567C160.73 168.364 160.757 168.16 160.825 167.969C160.893 167.777 161 167.601 161.138 167.453C161.277 167.304 161.445 167.185 161.631 167.104C161.818 167.023 162.019 166.981 162.222 166.981C162.426 166.981 162.627 167.023 162.813 167.104C163 167.185 163.167 167.304 163.306 167.453C163.445 167.601 163.551 167.777 163.619 167.969C163.687 168.16 163.715 168.364 163.701 168.567Z" fill="#4CAF4F"/>
<path d="M168.283 168.588C168.263 168.876 168.16 169.153 167.985 169.383C167.81 169.613 167.572 169.787 167.3 169.884C167.028 169.981 166.733 169.996 166.452 169.927C166.172 169.858 165.917 169.709 165.72 169.498C165.523 169.286 165.392 169.022 165.343 168.737C165.295 168.452 165.33 168.159 165.446 167.895C165.562 167.63 165.752 167.404 165.994 167.246C166.236 167.089 166.519 167.005 166.808 167.005C167.213 167.02 167.596 167.195 167.872 167.492C168.149 167.789 168.296 168.183 168.283 168.588Z" fill="#4CAF4F"/>
<path d="M172.867 168.61C172.847 168.9 172.742 169.177 172.566 169.408C172.39 169.639 172.149 169.813 171.875 169.908C171.601 170.004 171.304 170.016 171.023 169.945C170.741 169.873 170.487 169.72 170.292 169.505C170.096 169.291 169.968 169.023 169.924 168.736C169.879 168.449 169.92 168.155 170.041 167.891C170.162 167.627 170.358 167.404 170.605 167.251C170.851 167.097 171.138 167.019 171.428 167.027C171.827 167.051 172.2 167.23 172.469 167.526C172.738 167.822 172.881 168.211 172.867 168.61Z" fill="#4CAF4F"/>
<g opacity="0.2">
<path d="M136.19 168.444C136.169 168.734 136.064 169.01 135.886 169.24C135.709 169.47 135.469 169.643 135.194 169.737C134.92 169.832 134.624 169.843 134.343 169.771C134.062 169.699 133.808 169.545 133.614 169.33C133.419 169.115 133.292 168.848 133.248 168.561C133.204 168.274 133.245 167.981 133.366 167.717C133.487 167.453 133.683 167.231 133.929 167.078C134.176 166.924 134.462 166.847 134.752 166.854C135.152 166.877 135.528 167.056 135.798 167.354C136.067 167.651 136.208 168.043 136.19 168.444Z" fill="white"/>
<path d="M140.773 168.466C140.787 168.669 140.759 168.872 140.691 169.064C140.624 169.256 140.517 169.431 140.378 169.58C140.24 169.729 140.072 169.847 139.885 169.928C139.699 170.009 139.498 170.051 139.294 170.051C139.091 170.051 138.89 170.009 138.704 169.928C138.517 169.847 138.349 169.729 138.211 169.58C138.072 169.431 137.965 169.256 137.898 169.064C137.83 168.872 137.802 168.669 137.816 168.466C137.802 168.263 137.83 168.06 137.898 167.868C137.965 167.676 138.072 167.501 138.211 167.352C138.349 167.203 138.517 167.085 138.704 167.004C138.89 166.923 139.091 166.881 139.294 166.881C139.498 166.881 139.699 166.923 139.885 167.004C140.072 167.085 140.24 167.203 140.378 167.352C140.517 167.501 140.624 167.676 140.691 167.868C140.759 168.06 140.787 168.263 140.773 168.466Z" fill="white"/>
<path d="M145.362 168.488C145.341 168.777 145.235 169.054 145.058 169.284C144.881 169.513 144.641 169.686 144.366 169.781C144.092 169.875 143.796 169.887 143.515 169.814C143.234 169.742 142.98 169.589 142.785 169.373C142.591 169.158 142.464 168.891 142.42 168.604C142.375 168.317 142.417 168.024 142.538 167.76C142.659 167.497 142.855 167.274 143.101 167.121C143.348 166.968 143.633 166.89 143.924 166.898C144.324 166.922 144.698 167.102 144.967 167.399C145.236 167.696 145.378 168.087 145.362 168.488Z" fill="white"/>
<path d="M149.946 168.509C149.925 168.798 149.819 169.075 149.642 169.305C149.465 169.535 149.225 169.708 148.95 169.802C148.676 169.896 148.38 169.908 148.099 169.836C147.818 169.763 147.564 169.61 147.369 169.395C147.175 169.18 147.048 168.912 147.003 168.625C146.959 168.339 147.001 168.045 147.122 167.782C147.243 167.518 147.439 167.296 147.685 167.142C147.932 166.989 148.217 166.911 148.508 166.919C148.908 166.943 149.282 167.123 149.551 167.42C149.82 167.718 149.962 168.108 149.946 168.509Z" fill="white"/>
<path d="M154.529 168.523C154.509 168.813 154.404 169.091 154.228 169.322C154.052 169.553 153.812 169.726 153.537 169.822C153.263 169.917 152.966 169.93 152.685 169.858C152.403 169.787 152.149 169.634 151.954 169.419C151.758 169.204 151.63 168.936 151.586 168.649C151.541 168.362 151.582 168.069 151.703 167.805C151.824 167.54 152.02 167.318 152.267 167.164C152.513 167.011 152.8 166.933 153.09 166.941C153.489 166.965 153.863 167.144 154.131 167.44C154.4 167.735 154.543 168.124 154.529 168.523Z" fill="white"/>
<path d="M159.119 168.545C159.099 168.833 158.996 169.11 158.821 169.34C158.646 169.57 158.408 169.744 158.136 169.841C157.864 169.938 157.569 169.952 157.288 169.884C157.007 169.815 156.753 169.666 156.556 169.455C156.359 169.243 156.228 168.979 156.179 168.694C156.131 168.409 156.166 168.116 156.282 167.851C156.398 167.587 156.588 167.361 156.83 167.203C157.072 167.045 157.355 166.962 157.644 166.962C158.049 166.977 158.432 167.152 158.708 167.449C158.985 167.746 159.132 168.14 159.119 168.545Z" fill="white"/>
<path d="M163.701 168.567C163.715 168.769 163.687 168.973 163.619 169.165C163.551 169.356 163.445 169.532 163.306 169.681C163.167 169.829 163 169.948 162.813 170.029C162.627 170.11 162.426 170.152 162.222 170.152C162.019 170.152 161.818 170.11 161.631 170.029C161.445 169.948 161.277 169.829 161.138 169.681C161 169.532 160.893 169.356 160.825 169.165C160.757 168.973 160.73 168.769 160.744 168.567C160.73 168.364 160.757 168.16 160.825 167.969C160.893 167.777 161 167.601 161.138 167.453C161.277 167.304 161.445 167.185 161.631 167.104C161.818 167.023 162.019 166.981 162.222 166.981C162.426 166.981 162.627 167.023 162.813 167.104C163 167.185 163.167 167.304 163.306 167.453C163.445 167.601 163.551 167.777 163.619 167.969C163.687 168.16 163.715 168.364 163.701 168.567Z" fill="white"/>
<path d="M168.283 168.588C168.263 168.876 168.16 169.153 167.985 169.383C167.81 169.613 167.572 169.787 167.3 169.884C167.028 169.981 166.733 169.996 166.452 169.927C166.172 169.858 165.917 169.709 165.72 169.498C165.523 169.286 165.392 169.022 165.343 168.737C165.295 168.452 165.33 168.159 165.446 167.895C165.562 167.63 165.752 167.404 165.994 167.246C166.236 167.089 166.519 167.005 166.808 167.005C167.213 167.02 167.596 167.195 167.872 167.492C168.149 167.789 168.296 168.183 168.283 168.588Z" fill="white"/>
<path d="M172.867 168.61C172.847 168.9 172.742 169.177 172.566 169.408C172.39 169.639 172.149 169.813 171.875 169.908C171.601 170.004 171.304 170.016 171.023 169.945C170.741 169.873 170.487 169.72 170.292 169.505C170.096 169.29 169.968 169.023 169.924 168.736C169.879 168.449 169.92 168.155 170.041 167.891C170.162 167.627 170.358 167.404 170.605 167.251C170.851 167.097 171.138 167.019 171.428 167.027C171.827 167.051 172.2 167.23 172.469 167.526C172.738 167.821 172.881 168.21 172.867 168.61Z" fill="white"/>
</g>
<path d="M166.355 64.7564C166.854 64.5363 167.278 64.1741 167.574 63.7149C167.869 63.2557 168.023 62.7197 168.017 62.1737C168.035 61.8187 167.981 61.4637 167.858 61.1302C167.735 60.7968 167.546 60.4918 167.301 60.234C167.056 59.9762 166.762 59.7708 166.435 59.6305C166.109 59.4902 165.757 59.4178 165.402 59.4178C165.046 59.4178 164.694 59.4902 164.368 59.6305C164.041 59.7708 163.747 59.9762 163.502 60.234C163.257 60.4918 163.068 60.7968 162.945 61.1302C162.822 61.4637 162.768 61.8187 162.786 62.1737C162.776 62.7252 162.928 63.2676 163.225 63.7323C163.522 64.1971 163.95 64.5635 164.455 64.7851C160.427 65.3894 160.607 69.7634 160.607 69.7634L170.132 69.8066C170.132 69.8066 170.355 65.3535 166.355 64.7564Z" fill="#4CAF4F"/>
<path opacity="0.1" d="M166.355 64.7564C166.854 64.5363 167.278 64.1741 167.574 63.7149C167.869 63.2557 168.023 62.7197 168.017 62.1737C168.035 61.8187 167.981 61.4637 167.858 61.1302C167.735 60.7968 167.546 60.4918 167.301 60.234C167.056 59.9762 166.762 59.7708 166.435 59.6305C166.109 59.4902 165.757 59.4178 165.402 59.4178C165.046 59.4178 164.694 59.4902 164.368 59.6305C164.041 59.7708 163.747 59.9762 163.502 60.234C163.257 60.4918 163.068 60.7968 162.945 61.1302C162.822 61.4637 162.768 61.8187 162.786 62.1737C162.776 62.7252 162.928 63.2676 163.225 63.7323C163.522 64.1971 163.95 64.5635 164.455 64.7851C160.427 65.3894 160.607 69.7634 160.607 69.7634L170.132 69.8066C170.132 69.8066 170.355 65.3535 166.355 64.7564Z" fill="black"/>
<path d="M181.833 72.6277L147.885 72.4736L147.866 76.531L181.815 76.6851L181.833 72.6277Z" fill="#4CAF4F"/>
<path opacity="0.2" d="M181.833 72.6277L147.885 72.4736L147.866 76.531L181.815 76.6851L181.833 72.6277Z" fill="white"/>
<path d="M57.0283 93.6548H56.6902L55.7118 93.7268C55.1823 93.7586 54.6558 93.8283 54.1363 93.9354C53.7998 93.9827 53.466 94.0475 53.1363 94.1296L52.0212 94.439C50.1233 95.0213 48.3326 95.9081 46.7192 97.0648C44.5875 98.6121 42.8075 100.593 41.4963 102.878C40.7256 104.195 40.1123 105.597 39.669 107.057C39.2032 108.644 38.935 110.282 38.8705 111.935C38.8276 112.803 38.842 113.673 38.9136 114.539C38.9136 114.978 39.0359 115.417 39.0935 115.863C39.1419 116.313 39.2261 116.758 39.3453 117.194C39.9922 120.081 41.3048 122.776 43.1784 125.066C45.0519 127.355 47.4346 129.175 50.1364 130.381C52.0918 131.224 54.1877 131.695 56.3161 131.769C58.5144 131.89 60.7149 131.574 62.7907 130.841L63.4238 130.604H63.5101L63.5821 130.647L72.6538 135.251L72.3876 135.481C71.4164 132.474 70.4812 129.56 69.5747 126.762V126.654L69.6539 126.575C71.8545 124.358 73.4882 121.644 74.4163 118.661C75.257 115.935 75.5023 113.06 75.1357 110.23C74.8097 107.715 74.0011 105.287 72.7545 103.079C71.6799 101.182 70.2937 99.4798 68.6539 98.0432C67.301 96.9061 65.8037 95.953 64.2008 95.2088C62.9879 94.6857 61.7248 94.2879 60.4311 94.0217L58.9923 93.7843L57.9491 93.7052L57.3161 93.662H57.1002C57.1719 93.6541 57.2443 93.6541 57.3161 93.662H57.9563L58.9995 93.7052L60.4383 93.9138C61.7481 94.1605 63.0285 94.5439 64.2583 95.0577C65.8887 95.7931 67.4131 96.744 68.7906 97.8849C70.4605 99.3152 71.8762 101.018 72.9775 102.921C74.2595 105.153 75.0929 107.614 75.4307 110.165C75.8277 113.038 75.5995 115.964 74.7616 118.741C73.8275 121.785 72.1685 124.557 69.9272 126.819L69.9704 126.632C70.8769 129.431 71.8193 132.345 72.7977 135.344L72.9344 135.783L72.5243 135.575L63.4526 130.978H63.6109L62.9634 131.215C60.8476 131.96 58.6063 132.282 56.3664 132.165C54.1922 132.082 52.0524 131.594 50.0572 130.726C46.2514 129.096 43.0849 126.263 41.0431 122.661C40.1035 120.998 39.4173 119.204 39.0072 117.338C38.8949 116.89 38.8108 116.436 38.7554 115.978C38.6978 115.525 38.6043 115.079 38.5827 114.633C38.388 112.073 38.6586 109.499 39.3813 107.036C39.8356 105.556 40.466 104.135 41.2589 102.806C42.6014 100.5 44.4185 98.5068 46.5897 96.9569C48.2297 95.7972 50.0505 94.9172 51.9781 94.3527L53.1075 94.0649C53.44 93.9878 53.7761 93.9278 54.1147 93.885C54.6396 93.7879 55.171 93.7301 55.7046 93.7124L56.6902 93.6764C56.8022 93.6613 56.9152 93.6541 57.0283 93.6548Z" fill="#4CAF4F"/>
<path d="M61.1298 110.431H59.7989L56.9213 106.388V103.734C56.9213 103.734 54.8638 103.604 55.1084 107.079C55.353 110.554 55.1084 109.669 55.1084 109.669C55.1084 109.669 50.7416 109.669 50.3819 110.065C50.0222 110.46 50.0006 114.676 49.9503 117.028C49.9227 117.595 50.0854 118.156 50.4126 118.62C50.7397 119.084 51.2126 119.425 51.756 119.589C51.9083 119.632 52.0655 119.653 52.2236 119.654C53.3171 119.654 58.8781 118.769 58.8781 118.769H61.173L61.1298 110.431Z" fill="#4CAF4F"/>
<path d="M64.9352 109.719L64.1151 118.812H61.8418V109.906L64.9352 109.719Z" fill="#4CAF4F"/>
<path d="M92.0497 294.844V288.693L81.0213 288.614L80.9277 297.916L81.6112 297.966C84.6543 298.16 97.0928 298.448 99.1359 297.815C101.409 297.11 92.0497 294.844 92.0497 294.844Z" fill="#4CAF4F"/>
<path d="M99.3941 297.24C99.3941 297.34 95.2647 297.427 90.1785 297.427C85.0923 297.427 80.9629 297.34 80.9629 297.24C80.9629 297.139 85.0923 297.052 90.1785 297.052C95.2647 297.052 99.3941 297.139 99.3941 297.24Z" fill="#263238"/>
<path d="M92.2431 296.103C92.1495 296.053 92.2431 295.729 92.4661 295.384C92.6891 295.038 92.9912 294.894 93.0632 294.966C93.1351 295.038 92.984 295.312 92.7682 295.607C92.5524 295.902 92.3366 296.153 92.2431 296.103Z" fill="#263238"/>
<path d="M92.9483 296.506C92.8476 296.506 92.8979 296.103 93.1137 295.722C93.3296 295.34 93.6173 295.11 93.6965 295.168C93.7756 295.225 93.6461 295.549 93.4447 295.887C93.2432 296.225 93.0418 296.542 92.9483 296.506Z" fill="#263238"/>
<path d="M84.2868 297.211C84.2436 297.211 84.0781 297.081 83.8407 296.808C83.5509 296.456 83.2281 296.134 82.8767 295.844C82.5312 295.568 82.1195 295.387 81.6825 295.319C81.3444 295.276 81.1286 295.319 81.107 295.276C81.0854 295.232 81.294 295.081 81.6897 295.052C82.2119 295.041 82.7213 295.215 83.1285 295.542C83.5101 295.853 83.8319 296.231 84.0781 296.657C84.2436 296.973 84.3299 297.182 84.2868 297.211Z" fill="#263238"/>
<path d="M92.2802 294.945C92.3306 295.031 92.1435 295.247 91.827 295.362C91.5105 295.477 91.2299 295.434 91.2155 295.362C91.2011 295.29 91.4241 295.139 91.6975 295.038C91.9709 294.938 92.2227 294.858 92.2802 294.945Z" fill="#263238"/>
<path d="M92.107 294.348C92.107 294.455 91.8193 294.542 91.4452 294.549C91.0711 294.556 90.7761 294.47 90.7833 294.369C90.7905 294.268 91.0855 294.175 91.4452 294.168C91.8049 294.16 92.0926 294.247 92.107 294.348Z" fill="#263238"/>
<path d="M119.206 294.844V288.693L108.178 288.614L108.084 297.822L108.767 297.873C111.811 298.067 124.256 298.448 126.292 297.815C128.565 297.11 119.206 294.844 119.206 294.844Z" fill="#4CAF4F"/>
<path d="M126.553 297.254C126.553 297.355 122.431 297.441 117.337 297.441C112.244 297.441 108.129 297.355 108.129 297.254C108.129 297.153 112.251 297.067 117.337 297.067C122.424 297.067 126.553 297.153 126.553 297.254Z" fill="#263238"/>
<path d="M119.402 296.103C119.316 296.053 119.402 295.729 119.625 295.384C119.848 295.038 120.15 294.894 120.222 294.966C120.294 295.038 120.143 295.312 119.927 295.607C119.711 295.902 119.496 296.153 119.402 296.103Z" fill="#263238"/>
<path d="M120.107 296.506C120.013 296.506 120.057 296.103 120.28 295.722C120.503 295.34 120.783 295.11 120.862 295.168C120.941 295.225 120.805 295.549 120.603 295.887C120.402 296.225 120.208 296.542 120.107 296.506Z" fill="#263238"/>
<path d="M111.445 297.211C111.402 297.211 111.244 297.081 110.999 296.808C110.709 296.456 110.386 296.134 110.035 295.844C109.689 295.568 109.278 295.387 108.841 295.319C108.51 295.276 108.287 295.319 108.265 295.276C108.244 295.232 108.452 295.081 108.848 295.052C109.37 295.041 109.879 295.215 110.287 295.542C110.67 295.851 110.992 296.229 111.236 296.657C111.402 296.973 111.488 297.182 111.445 297.211Z" fill="#263238"/>
<path d="M119.436 294.945C119.487 295.031 119.3 295.247 118.983 295.362C118.667 295.477 118.386 295.434 118.372 295.362C118.357 295.29 118.58 295.139 118.854 295.038C119.127 294.938 119.379 294.858 119.436 294.945Z" fill="#263238"/>
<path d="M119.28 294.348C119.28 294.455 118.992 294.542 118.618 294.549C118.244 294.556 117.956 294.47 117.963 294.369C117.97 294.268 118.258 294.175 118.618 294.168C118.977 294.16 119.28 294.247 119.28 294.348Z" fill="#263238"/>
<path d="M159.839 112.187C159.551 111.892 158.839 112.036 158.839 112.036C158.91 111.621 158.91 111.198 158.839 110.784C158.71 110.381 157.803 110.46 157.803 110.46C157.761 110.121 157.761 109.778 157.803 109.439C157.81 109.363 157.794 109.288 157.757 109.222C157.719 109.156 157.663 109.104 157.594 109.072C157.166 108.897 156.705 108.814 156.242 108.827C155.688 108.431 157.933 105.288 158.767 104.28C159.602 103.273 159.451 102.489 158.71 102.489C158.199 102.489 155.58 105.511 154.774 106.525C153.969 107.539 151.832 110.359 151.76 108.108C151.688 105.856 150.782 104.158 150.213 103.87C149.645 103.583 149.041 104.259 149.35 104.885C149.622 105.596 149.791 106.342 149.854 107.101C149.932 107.705 149.905 108.318 149.775 108.913C149.536 110.021 149.211 111.108 148.803 112.165H148.746C148.746 112.165 133.048 127.222 131.912 128.294C130.897 129.258 110.495 127.15 106.402 126.719C105.011 126.515 103.606 126.419 102.2 126.431C100.423 126.51 100.107 126.762 98.337 126.783C93.8676 126.833 89.4086 127.225 84.9992 127.956C83.0026 128.296 81.1375 129.177 79.6076 130.504C78.0776 131.831 76.9415 133.553 76.3231 135.481C72.2009 148.358 62.8631 178.84 61.2156 195.962C59.9707 198.219 58.8469 200.541 57.8488 202.918C56.6906 206.069 56.9711 206.177 57.3596 206.249C58.4099 206.443 59.6041 200.789 60.0502 202.156C60.4962 203.523 57.7841 208.896 58.8847 209.055C60.3236 209.256 61.4674 203.3 61.6041 202.825C61.7408 202.35 62.453 202.501 62.3235 202.947C62.1149 203.58 60.0933 210.292 61.5034 210.508C62.2803 210.623 62.3667 209.206 62.3667 209.206C62.3667 209.206 63.8055 202.782 64.4601 202.911C65.1148 203.041 64.417 206.832 64.086 208.098C63.7551 209.364 64.2155 210.004 64.8918 209.695C65.3522 209.479 66.4529 205.63 66.755 204.379C67.0572 203.127 67.8126 199.659 68.8269 201.666C69.8413 203.674 71.3808 204.839 72.0139 204.868C72.1566 204.851 72.291 204.793 72.4 204.699C72.509 204.606 72.5875 204.482 72.6254 204.343C72.6633 204.205 72.6589 204.058 72.6127 203.922C72.5666 203.786 72.4808 203.667 72.3664 203.58C71.8219 203.048 71.3545 202.443 70.978 201.782C70.6424 201.266 70.3989 200.697 70.2586 200.098C69.9686 198.905 69.7999 197.685 69.755 196.458L69.6399 195.739C71.2513 187.76 75.8915 164.344 82.5892 149.387L85.3373 155.042L86.5315 159.229L79.208 177.307L110.445 176.897L105.783 158.955L111.445 140.251C117.567 140.387 133.286 140.618 135.904 139.431C139.199 137.992 156.242 116.467 156.242 116.467C157.353 115.604 158.417 114.682 159.429 113.705C159.429 113.705 160.465 112.834 159.839 112.187Z" fill="#FFBE9D"/>
<path d="M77.8338 163.948C78.7402 160.855 83.3948 145.56 83.3948 145.56C83.3948 145.56 85.6825 158.027 85.0782 159.531C84.5224 160.818 83.8656 162.059 83.1142 163.243C77.8338 171.279 78.5244 175.3 78.5244 175.3L110.43 174.329C110.502 169.869 107.862 159.495 107.315 157.84C106.768 156.186 108.588 150.768 108.588 150.768C108.588 150.768 112.185 147.107 112.056 145.222C111.988 143.529 111.778 141.844 111.43 140.186L130.854 140.905L130.243 127.74L102.344 124.949C101.373 127.69 92.5888 126.345 92.5888 126.345C83.107 126.661 82.5171 128.402 78.5748 131.467C74.6324 134.531 68.1074 160.833 68.1074 160.833L77.8338 163.948Z" fill="#4CAF4F"/>
<path d="M96.6961 160.833C96.1432 160.932 95.58 160.961 95.0199 160.919C93.9767 160.919 92.5451 160.847 90.9696 160.689C89.3941 160.531 87.9697 160.308 86.9553 160.106C86.396 160.034 85.8476 159.894 85.3223 159.689C85.8847 159.689 86.4459 159.742 86.9985 159.847C88.02 159.977 89.4373 160.157 91.0056 160.315C92.5739 160.473 93.9983 160.581 95.027 160.653C95.5878 160.66 96.1467 160.721 96.6961 160.833Z" fill="#263238"/>
<path d="M98.8842 158.121C98.3311 158.392 97.7462 158.592 97.1432 158.718C94.273 159.472 91.3118 159.823 88.3449 159.761C87.7309 159.781 87.1169 159.723 86.5176 159.588C87.1235 159.512 87.7343 159.481 88.3449 159.495C89.4743 159.459 91.0283 159.38 92.7404 159.178C94.4526 158.977 95.9778 158.689 97.0569 158.459C97.6563 158.299 98.2672 158.186 98.8842 158.121Z" fill="#263238"/>
<path d="M109.617 146.02C109.602 146.569 109.528 147.114 109.394 147.646C109.207 148.646 108.919 150.013 108.552 151.509C108.185 153.006 107.833 154.387 107.516 155.322C107.389 155.858 107.201 156.377 106.955 156.869C106.995 156.322 107.097 155.782 107.257 155.258C107.531 154.135 107.84 152.84 108.185 151.423C108.531 150.006 108.862 148.711 109.135 147.589C109.232 147.049 109.394 146.522 109.617 146.02Z" fill="#263238"/>
<path d="M78.1711 162.114C76.5068 161.857 74.8642 161.474 73.2575 160.97C71.6157 160.586 70.0047 160.081 68.4375 159.459C70.101 159.72 71.7432 160.102 73.351 160.603C74.9932 160.985 76.6044 161.49 78.1711 162.114Z" fill="#263238"/>
<path d="M111.776 140.028C111.504 140.074 111.227 140.074 110.956 140.028C110.204 139.951 109.466 139.774 108.761 139.503C107.584 139.06 106.513 138.377 105.616 137.496C104.719 136.615 104.016 135.556 103.553 134.388C103.041 133.102 102.822 131.718 102.913 130.337C102.945 129.198 103.285 128.089 103.898 127.129C104.329 126.482 104.973 126.006 105.718 125.784C105.917 125.729 106.123 125.702 106.33 125.704C106.474 125.704 106.546 125.704 106.546 125.704C106.546 125.704 106.243 125.704 105.761 125.899C105.078 126.151 104.498 126.625 104.114 127.244C103.136 128.783 102.862 131.596 103.905 134.222C104.391 135.46 105.151 136.572 106.128 137.474C106.929 138.212 107.852 138.806 108.855 139.229C109.796 139.601 110.776 139.869 111.776 140.028Z" fill="#263238"/>
<path d="M128.544 140.646C128.364 138.44 128.307 136.226 128.372 134.014C128.315 131.803 128.382 129.591 128.573 127.388C128.753 129.591 128.811 131.803 128.746 134.014C128.806 136.227 128.739 138.441 128.544 140.646Z" fill="#263238"/>
<path d="M102.158 125.755C102.237 124.15 102.403 122.338 102.403 122.338C102.403 122.338 106.374 121.899 106.611 117.798C106.849 113.698 106.611 104.237 106.611 104.237L99.4171 100.554L91.4316 106.834L92.6618 127.337L99.9854 127.805C100.545 127.821 101.088 127.613 101.496 127.229C101.903 126.845 102.141 126.315 102.158 125.755Z" fill="#FFBE9D"/>
<path d="M102.87 114.554C102.87 114.554 102.87 114.633 102.805 114.726C102.751 114.794 102.682 114.848 102.603 114.883C102.524 114.918 102.438 114.933 102.352 114.928C101.891 114.928 101.445 114.395 101.287 113.777C101.212 113.477 101.212 113.163 101.287 112.863C101.302 112.732 101.349 112.607 101.424 112.499C101.5 112.391 101.601 112.303 101.719 112.244C101.815 112.204 101.924 112.204 102.021 112.244C102.092 112.28 102.151 112.338 102.186 112.41C102.237 112.532 102.186 112.611 102.186 112.604C102.186 112.597 102.186 112.532 102.114 112.46C102.077 112.409 102.021 112.373 101.959 112.36C101.897 112.346 101.831 112.356 101.776 112.388C101.688 112.442 101.615 112.516 101.563 112.606C101.511 112.695 101.483 112.796 101.481 112.899C101.421 113.167 101.421 113.444 101.481 113.712C101.625 114.273 102.013 114.726 102.359 114.769C102.426 114.779 102.495 114.774 102.561 114.755C102.626 114.737 102.687 114.705 102.74 114.662C102.826 114.604 102.855 114.546 102.87 114.554Z" fill="#EB996E"/>
<path d="M109.079 102.022C108.525 100.137 106.517 99.2015 104.69 98.6835C101.906 97.8922 98.8989 97.5468 96.1796 98.5468C93.4602 99.5468 90.1941 101.302 90.1941 104.302C88.5898 104.173 87.669 105.575 87.0359 107.316C86.6312 108.377 86.3886 109.493 86.3165 110.626C86.1151 114.554 85.0144 119.978 82.4677 122.856C81.0289 124.46 79.0361 125.568 78.216 127.568C77.4966 129.301 77.8707 131.359 77.2016 133.114C76.6045 134.661 75.288 135.762 74.324 137.107C73.3419 138.633 72.7639 140.384 72.6443 142.195C72.5248 144.006 72.8676 145.817 73.6406 147.459C74.4191 149.059 75.5152 150.484 76.8621 151.646C78.209 152.809 79.7784 153.685 81.4749 154.222C84.8353 155.244 88.4187 155.279 91.7984 154.322C94.3348 153.716 96.7009 152.543 98.7191 150.891C100.784 149.205 102.202 146.856 102.733 144.244C103.244 141.308 102.424 138.323 101.813 135.402C99.8989 126.172 100.446 125.69 102.863 117.122C102.92 116.971 102.949 116.813 102.992 116.661C103.036 116.51 103.057 116.438 103.086 116.323C103.155 115.985 103.191 115.64 103.194 115.295C102.841 115.426 102.458 115.454 102.089 115.375C101.721 115.296 101.383 115.113 101.115 114.849C100.846 114.566 100.659 114.217 100.572 113.837C100.486 113.457 100.505 113.061 100.626 112.69C100.795 112.285 101.048 111.92 101.368 111.619C101.688 111.318 102.067 111.087 102.482 110.942C103.28 110.611 104.136 110.439 104.92 110.072C106.582 109.28 107.733 107.64 108.517 105.921C109.162 104.729 109.361 103.347 109.079 102.022Z" fill="#263238"/>
<path d="M103.156 114.748C103.308 114.972 103.434 115.214 103.53 115.467C103.746 115.92 104.034 116.561 104.351 117.302L104.408 117.438H104.257L103.538 117.503C103.041 117.503 102.624 117.597 102.135 117.589C102.092 117.58 102.053 117.56 102.02 117.531C101.987 117.502 101.962 117.465 101.948 117.424C101.926 117.359 101.926 117.288 101.948 117.223C101.964 117.126 101.986 117.03 102.012 116.935L102.142 116.424C102.207 116.083 102.308 115.75 102.444 115.431C102.431 115.779 102.38 116.123 102.293 116.46L102.192 116.971C102.156 117.143 102.092 117.41 102.192 117.388C102.552 117.388 103.063 117.309 103.538 117.28L104.257 117.215L104.163 117.374C103.854 116.654 103.595 115.978 103.444 115.51C103.312 115.272 103.215 115.015 103.156 114.748Z" fill="#4CAF4F"/>
<path d="M78.5243 175.3L110.43 174.329L124.315 228.529L121.761 290.7H104.891L106.955 229.853L94.6174 192.12L96.5166 293.11L79.4667 293.362L77.6754 198.436C77.5963 195.796 76.733 189.847 77.0567 187.228L78.5243 175.3Z" fill="#263238"/>
<path d="M98.8616 192.89C98.3394 192.923 97.8151 192.891 97.3005 192.796C96.3365 192.681 95.02 192.48 93.574 192.192C92.128 191.904 90.833 191.573 89.8978 191.307C89.3979 191.197 88.9142 191.023 88.459 190.789C88.459 190.681 90.8042 191.242 93.6819 191.825C96.5595 192.408 98.876 192.782 98.8616 192.89Z" fill="#455A64"/>
<path d="M121.589 287.29C121.589 287.391 117.769 287.477 113.057 287.477C108.345 287.477 104.518 287.391 104.518 287.29C104.518 287.189 108.338 287.103 113.057 287.103C117.776 287.103 121.589 287.182 121.589 287.29Z" fill="#455A64"/>
<path d="M96.3668 290.484C96.3668 290.592 92.6546 290.671 88.0792 290.671C83.5038 290.671 79.7988 290.592 79.7988 290.484C79.7988 290.376 83.511 290.297 88.0792 290.297C92.6474 290.297 96.3668 290.384 96.3668 290.484Z" fill="#455A64"/>
<path d="M94.164 290.225C94.0633 290.225 93.6173 268.161 93.164 240.946C92.7108 213.731 92.4446 191.652 92.5382 191.652C92.6317 191.652 93.0921 213.709 93.5381 240.939C93.9842 268.168 94.2719 290.225 94.164 290.225Z" fill="#455A64"/>
<path d="M119.322 287.29C119.314 287.192 119.314 287.093 119.322 286.995V286.132C119.322 285.355 119.379 284.24 119.422 282.823C119.523 279.945 119.667 275.765 119.847 270.643C120.235 260.341 120.782 246.14 121.379 230.464C121.379 230.313 121.379 230.169 121.379 230.04V230.09C117.602 214.983 114.185 201.271 111.703 191.35L108.826 179.617C108.495 178.243 108.243 177.171 108.063 176.423C107.977 176.07 107.919 175.797 107.869 175.588C107.841 175.494 107.824 175.398 107.818 175.3C107.856 175.391 107.885 175.485 107.905 175.581C107.962 175.782 108.034 176.056 108.135 176.401C108.329 177.12 108.61 178.214 108.969 179.581C109.689 182.358 110.703 186.358 111.969 191.286C114.473 201.199 117.926 214.875 121.753 230.004V230.054C121.753 230.184 121.753 230.335 121.753 230.479C121.113 246.155 120.53 260.348 120.106 270.65C119.883 275.78 119.696 279.931 119.566 282.823C119.494 284.262 119.437 285.355 119.401 286.132C119.401 286.499 119.358 286.787 119.35 286.995C119.352 287.094 119.342 287.193 119.322 287.29Z" fill="#455A64"/>
<path d="M113.818 228.774C112.606 229.172 111.358 229.449 110.091 229.601C108.537 229.867 107.214 230.054 106.617 230.083V229.939C106.811 229.997 106.912 230.033 106.912 230.061C106.912 230.09 106.789 230.061 106.588 230.061H106.156L106.588 229.932C107.149 229.766 108.473 229.493 110.027 229.213C111.273 228.942 112.543 228.795 113.818 228.774Z" fill="#455A64"/>
<path d="M113.523 230.838C112.401 230.89 111.277 230.839 110.164 230.687C109.04 230.664 107.92 230.542 106.818 230.32C109.067 230.137 111.33 230.312 113.523 230.838Z" fill="#455A64"/>
<path opacity="0.2" d="M78.3887 176.444C78.7665 176.929 79.2425 177.329 79.7854 177.618C80.3284 177.907 80.9261 178.078 81.5397 178.12C82.8247 178.273 84.1244 178.248 85.4029 178.048C93.6401 177.135 102.366 176.293 110.431 174.329C99.9924 174.912 88.9639 174.718 78.5254 175.3L78.4174 176.192" fill="black"/>
<g opacity="0.2">
<path d="M89.1426 191.156L95.0273 213.99L94.6173 192.12L89.1426 191.156Z" fill="black"/>
</g>
</svg>
