<svg width="35" height="34" viewBox="0 0 35 34" fill="none" xmlns="http://www.w3.org/2000/svg">
<path d="M4.43549 11.4802V11.8282H4.78352H29.842H30.1901V11.4802V9.91405C30.1901 9.12946 29.8784 8.377 29.3236 7.82221C28.7688 7.26743 28.0163 6.95575 27.2318 6.95575H7.39378C6.60919 6.95575 5.85674 7.26743 5.30195 7.82221C4.74716 8.377 4.43549 9.12946 4.43549 9.91405V11.4802ZM30.1901 13.5684V13.2204H29.842H4.78352H4.43549V13.5684V23.4874C4.43549 24.272 4.74716 25.0244 5.30195 25.5792C5.85674 26.134 6.60919 26.4457 7.39378 26.4457H27.2318C28.0163 26.4457 28.7688 26.134 29.3236 25.5792C29.8784 25.0244 30.1901 24.272 30.1901 23.4874V13.5684ZM3.04335 9.91405C3.04335 8.76024 3.5017 7.65369 4.31756 6.83782C5.13342 6.02196 6.23997 5.56361 7.39378 5.56361H27.2318C28.3856 5.56361 29.4921 6.02196 30.308 6.83782C31.1238 7.65369 31.5822 8.76024 31.5822 9.91405V23.4874C31.5822 24.6412 31.1238 25.7478 30.308 26.5636C29.4921 27.3795 28.3856 27.8378 27.2318 27.8378H7.39378C6.23997 27.8378 5.13342 27.3795 4.31756 26.5636C3.5017 25.7478 3.04335 24.6412 3.04335 23.4874V9.91405ZM22.5333 20.1811H25.6656C25.8502 20.1811 26.0273 20.2544 26.1578 20.3849C26.2883 20.5155 26.3617 20.6925 26.3617 20.8771C26.3617 21.0617 26.2883 21.2388 26.1578 21.3693C26.0273 21.4999 25.8502 21.5732 25.6656 21.5732H22.5333C22.3487 21.5732 22.1716 21.4999 22.0411 21.3693C21.9106 21.2388 21.8372 21.0617 21.8372 20.8771C21.8372 20.6925 21.9106 20.5155 22.0411 20.3849C22.1716 20.2544 22.3487 20.1811 22.5333 20.1811Z" fill="#4CAF4F" stroke="#4CAF4F" stroke-width="0.696069"/>
</svg>
