<svg width="308" height="302" viewBox="0 0 308 302" fill="none" xmlns="http://www.w3.org/2000/svg">
<path d="M153.904 265.199C219.725 265.199 273.083 262.084 273.083 258.241C273.083 254.398 219.725 251.283 153.904 251.283C88.083 251.283 34.7246 254.398 34.7246 258.241C34.7246 262.084 88.083 265.199 153.904 265.199Z" fill="#F5F5F5"/>
<path d="M214.908 102.845L208.811 100.386C208.811 100.386 200.764 115.058 198.459 115.802C195.325 116.81 188.834 119.613 184.986 120.105C184.463 120.72 183.609 122.631 183.689 123.326C188.858 125.053 200.217 122.76 202.652 120.953C208.19 116.853 214.908 102.845 214.908 102.845Z" fill="#E58A7B"/>
<path d="M216.784 99.5072C217.921 103.705 211.762 112.151 211.762 112.151L203.691 107.627C203.691 107.627 205.204 104.154 207.048 100.62C210.004 94.9095 215.487 94.7189 216.784 99.5072Z" fill="#4CAF4F"/>
<path opacity="0.2" d="M216.784 99.5072C217.921 103.705 211.762 112.151 211.762 112.151L203.691 107.627C203.691 107.627 205.204 104.154 207.048 100.62C210.004 94.9095 215.487 94.7189 216.784 99.5072Z" fill="black"/>
<path opacity="0.2" d="M206.895 109.434L210.072 111.217L210.632 101.462C208.782 102.882 207.478 107.16 206.895 109.434Z" fill="black"/>
<path d="M211.473 96.3478C211.473 96.3478 205.191 110.326 208.854 136.351H233.607C234.001 132.552 232.697 114.014 237.412 96.1142C234.697 95.5835 231.949 95.2324 229.188 95.0631C225.685 94.8601 222.173 94.8601 218.671 95.0631C216.242 95.3097 213.836 95.7391 211.473 96.3478Z" fill="#4CAF4F"/>
<path opacity="0.2" d="M211.473 96.3478C211.473 96.3478 205.191 110.326 208.854 136.351H233.607C234.001 132.552 232.697 114.014 237.412 96.1142C234.697 95.5835 231.949 95.2324 229.188 95.0631C225.685 94.8601 222.173 94.8601 218.671 95.0631C216.242 95.3097 213.836 95.7391 211.473 96.3478Z" fill="black"/>
<g style="mix-blend-mode:multiply">
<path d="M205.733 258.794C205.696 259.458 215.082 259.993 226.693 259.993C238.304 259.993 247.758 259.458 247.795 258.794C247.832 258.13 238.452 257.602 226.834 257.602C215.217 257.602 205.776 258.136 205.733 258.794Z" fill="#E8ECF1"/>
</g>
<path d="M222.255 241.351L217.865 243.051L221.647 252.82L226.037 251.121L222.255 241.351Z" fill="#E58A7B"/>
<path d="M241.831 254.067H237.202L235.506 243.353H240.134L241.831 254.067Z" fill="#E58A7B"/>
<path d="M236.884 253.532H242.084C242.174 253.533 242.261 253.565 242.33 253.624C242.398 253.682 242.444 253.763 242.459 253.852L243.129 257.964C243.143 258.067 243.134 258.172 243.104 258.272C243.074 258.372 243.023 258.464 242.954 258.542C242.886 258.62 242.801 258.683 242.706 258.725C242.611 258.767 242.507 258.789 242.403 258.788C240.59 258.757 239.717 258.647 237.431 258.647C236.023 258.647 233.128 258.794 231.173 258.794C229.219 258.794 229.089 256.876 229.895 256.698C233.509 255.917 234.91 254.854 236.115 253.821C236.328 253.635 236.601 253.532 236.884 253.532Z" fill="#263238"/>
<path d="M221.517 251.947L226.434 250.508C226.522 250.484 226.615 250.49 226.699 250.525C226.783 250.561 226.852 250.625 226.895 250.705L228.739 254.393C228.782 254.487 228.804 254.588 228.803 254.691C228.803 254.794 228.779 254.896 228.736 254.989C228.692 255.082 228.628 255.164 228.549 255.23C228.47 255.296 228.377 255.344 228.278 255.37C226.489 255.862 225.291 256.163 223.053 256.815C221.51 257.264 219.937 257.995 218.412 258.481C217.355 258.819 214.872 258.831 213.587 258.831C211.688 258.831 211.264 256.827 212.081 256.735C214.14 256.508 214.417 256.612 215.554 256.04C217.415 255.227 219.101 254.062 220.521 252.61C220.788 252.305 221.132 252.076 221.517 251.947Z" fill="#263238"/>
<path d="M185.762 120.08L180.672 117.947L178.576 123.59C180.662 123.908 182.784 123.908 184.87 123.59L185.762 120.08Z" fill="#E58A7B"/>
<path d="M176.885 117.8L176.75 121.549L178.576 123.578L180.672 117.935L176.885 117.8Z" fill="#E58A7B"/>
<path d="M222.857 242.181L218.453 243.881L220.403 248.933L224.807 247.233L222.857 242.181Z" fill="#CF6F64"/>
<path d="M240.134 243.353H235.506L236.385 248.879H241.013L240.134 243.353Z" fill="#CF6F64"/>
<path opacity="0.2" d="M208.068 129.313C208.161 130.425 208.265 131.562 208.4 132.73L226.804 126.756C229.678 125.904 232.175 124.098 233.885 121.635C233.958 119.994 234.051 118.267 234.192 116.466C234.254 115.593 234.327 114.696 234.407 113.786C234.487 112.876 234.598 111.868 234.715 110.897L208.068 129.313Z" fill="black"/>
<path d="M214.08 109.151L213.465 109.078C213.828 106.004 216.12 103.582 218.536 103.644V104.259C216.421 104.216 214.405 106.398 214.08 109.151Z" fill="white"/>
<path d="M217.355 114.825H217.25V114.21C219.364 114.29 221.35 112.083 221.676 109.336L222.29 109.41C221.965 112.415 219.746 114.825 217.355 114.825Z" fill="white"/>
<path d="M228.845 83.2183C227.978 86.6051 226.958 92.8072 229.189 95.0631C229.189 95.0631 227.628 98.4991 221.339 98.4991C215.592 98.4991 218.672 95.0631 218.672 95.0631C222.495 94.1656 222.563 91.375 222.059 88.7319L228.845 83.2183Z" fill="#E58A7B"/>
<path d="M226.078 85.468L222.064 88.7319C222.189 89.3393 222.261 89.9563 222.28 90.576C223.454 91.7438 225.808 88.7873 226.048 87.2752C226.169 86.6799 226.18 86.0671 226.078 85.468Z" fill="#CF6F64"/>
<path d="M215.162 83.1752C215.441 83.6593 215.817 84.0806 216.267 84.4127C216.716 84.7448 217.229 84.9806 217.774 85.1053C219.249 85.4311 219.987 84.0727 219.581 82.7081C219.219 81.4787 218.008 79.8253 216.508 80.108C216.187 80.1742 215.886 80.3164 215.631 80.5227C215.376 80.729 215.174 80.9934 215.042 81.2937C214.91 81.5941 214.852 81.9217 214.873 82.249C214.894 82.5764 214.993 82.894 215.162 83.1752Z" fill="#CF6F64"/>
<path d="M217.6 72.3385C215.302 73.3896 214.49 82.5237 217.379 83.8759C220.268 85.2282 221.952 70.3408 217.6 72.3385Z" fill="#263238"/>
<path d="M229.545 78.1226C228.991 82.7081 228.93 85.4065 226.471 87.7546C225.709 88.5338 224.747 89.0873 223.69 89.3539C222.634 89.6206 221.524 89.5901 220.484 89.2658C219.443 88.9415 218.513 88.3359 217.795 87.516C217.077 86.6962 216.599 85.6938 216.415 84.6197C215.671 80.5014 216.698 73.697 221.296 71.8714C222.262 71.4453 223.324 71.2853 224.373 71.4081C225.421 71.5308 226.418 71.9319 227.26 72.5696C228.101 73.2073 228.757 74.0584 229.159 75.0348C229.56 76.0113 229.694 77.0773 229.545 78.1226Z" fill="#E58A7B"/>
<path d="M221.99 74.7112C225.395 73.8445 227.897 73.2544 227 76.088C225.813 79.8744 224.387 83.5379 226.299 83.7039C227.467 83.8084 232.63 81.6201 231.972 79.4011C231.401 77.4711 233.816 76.9424 234.247 75.9651C235.839 72.4246 231.284 72.8917 232.095 70.7404C232.907 68.589 228.407 65.1222 225.948 66.8495C221.947 69.6401 215.081 69.5971 218.689 65.0055C221.277 61.7292 216.661 62.3992 216.661 62.3992C216.661 62.3992 219.451 64.0527 214.755 66.6098C209.789 69.3389 214.343 76.672 221.99 74.7112Z" fill="#263238"/>
<path d="M231.351 83.1752C230.679 84.148 229.669 84.8359 228.518 85.1053C226.999 85.4311 226.415 84.0727 226.987 82.7081C227.497 81.4787 228.899 79.8253 230.349 80.108C231.8 80.3908 232.132 81.9705 231.351 83.1752Z" fill="#E58A7B"/>
<path d="M208.854 136.351C208.854 136.351 204.699 173.539 204.373 187.652C204.041 202.33 218.455 248.13 218.455 248.13L225.831 245.056C225.831 245.056 217.226 203.209 218.455 188.795C219.758 173.078 225.143 136.375 225.143 136.375L208.854 136.351Z" fill="#4CAF4F"/>
<path opacity="0.2" d="M219.18 146.561C215.867 153.433 218.098 167.023 219.893 175.075C220.575 169.39 221.387 163.218 222.155 157.508C222.081 148.73 221.399 141.951 219.18 146.561Z" fill="black"/>
<path d="M225.505 242.622C225.542 242.622 226.378 244.97 226.378 244.97L217.871 248.547L216.531 246.052L225.505 242.622Z" fill="#4CAF4F"/>
<path d="M217.639 136.351C217.639 136.351 220.817 171.719 222.919 184.965C225.23 199.478 234.29 247.81 234.29 247.81H242.767C242.767 247.81 237.689 200.652 236.73 186.281C235.686 170.693 233.608 136.351 233.608 136.351H217.639Z" fill="#4CAF4F"/>
<path d="M242.895 245.603C242.932 245.603 243.178 247.97 243.178 247.97H233.859L233.195 245.253L242.895 245.603Z" fill="#4CAF4F"/>
<path opacity="0.2" d="M239.649 242.8C239.63 242.8 239.611 242.794 239.596 242.781C239.582 242.769 239.572 242.752 239.569 242.733C239.52 242.302 234.941 199.705 234.08 186.797C233.146 172.795 231.265 141.735 231.246 141.422C231.245 141.412 231.247 141.401 231.25 141.392C231.253 141.382 231.259 141.373 231.266 141.366C231.273 141.358 231.281 141.352 231.29 141.348C231.3 141.344 231.31 141.342 231.32 141.342C231.34 141.342 231.36 141.349 231.375 141.363C231.389 141.377 231.398 141.396 231.4 141.416C231.4 141.729 233.299 172.764 234.234 186.791C235.094 199.699 239.674 242.265 239.717 242.726C239.718 242.737 239.718 242.747 239.715 242.757C239.713 242.767 239.708 242.776 239.702 242.784C239.696 242.793 239.688 242.799 239.678 242.804C239.669 242.809 239.659 242.812 239.649 242.812V242.8Z" fill="black"/>
<path d="M222.512 79.4011C222.512 79.7761 222.279 80.0773 222.033 80.0773C221.787 80.0773 221.609 79.7761 221.633 79.4011C221.658 79.0262 221.867 78.725 222.113 78.725C222.358 78.725 222.537 79.0323 222.512 79.4011Z" fill="#263238"/>
<path d="M218.297 79.4011C218.297 79.7761 218.057 80.0773 217.817 80.0773C217.577 80.0773 217.393 79.7761 217.411 79.4011C217.43 79.0262 217.651 78.725 217.897 78.725C218.143 78.725 218.321 79.0323 218.297 79.4011Z" fill="#263238"/>
<path d="M219.623 79.5917C219.11 80.7366 218.449 81.8092 217.656 82.7818C218.271 83.3965 219.42 83.1138 219.42 83.1138L219.623 79.5917Z" fill="#DF5753"/>
<path d="M219.734 84.6812C219.719 84.6812 219.705 84.6784 219.692 84.6727C219.679 84.6671 219.667 84.6588 219.657 84.6485C219.648 84.6381 219.64 84.6258 219.635 84.6125C219.63 84.5991 219.628 84.5848 219.629 84.5706C219.631 84.5407 219.644 84.5125 219.665 84.4919C219.687 84.4713 219.716 84.4599 219.746 84.4599C220.216 84.4632 220.681 84.3611 221.106 84.1611C221.532 83.9611 221.907 83.6684 222.205 83.3043C222.226 83.2858 222.253 83.2755 222.281 83.2755C222.31 83.2755 222.337 83.2858 222.358 83.3043C222.378 83.325 222.389 83.3525 222.389 83.3812C222.389 83.4098 222.378 83.4374 222.358 83.458C222.04 83.8449 221.639 84.1556 221.185 84.3673C220.73 84.5789 220.235 84.6862 219.734 84.6812Z" fill="#263238"/>
<path d="M223.263 78.2702C223.234 78.2853 223.201 78.2932 223.168 78.2932C223.135 78.2932 223.102 78.2853 223.073 78.2702C222.843 78.1215 222.581 78.0291 222.309 78.0002C222.037 77.9714 221.761 78.007 221.505 78.1042C221.48 78.1167 221.453 78.124 221.425 78.1258C221.398 78.1276 221.37 78.1238 221.343 78.1147C221.317 78.1055 221.293 78.0912 221.272 78.0725C221.251 78.0538 221.234 78.0311 221.223 78.0059C221.2 77.9512 221.199 77.8897 221.221 77.8346C221.243 77.7795 221.285 77.7351 221.339 77.7108C221.661 77.5796 222.009 77.5278 222.355 77.5599C222.7 77.592 223.033 77.707 223.325 77.8952C223.348 77.9112 223.369 77.9318 223.384 77.9557C223.4 77.9795 223.41 78.0062 223.415 78.0343C223.421 78.0623 223.42 78.091 223.414 78.1189C223.408 78.1467 223.396 78.1731 223.38 78.1964C223.349 78.2317 223.309 78.2573 223.263 78.2702Z" fill="#263238"/>
<path d="M216.666 77.0408C216.633 77.0329 216.604 77.0159 216.58 76.9917C216.56 76.9716 216.544 76.9477 216.532 76.9213C216.521 76.8949 216.516 76.8666 216.516 76.838C216.516 76.8094 216.521 76.781 216.532 76.7547C216.544 76.7283 216.56 76.7044 216.58 76.6843C216.816 76.4201 217.109 76.2138 217.438 76.0816C217.766 75.9494 218.12 75.8948 218.473 75.9221C218.502 75.9265 218.529 75.9366 218.553 75.9519C218.577 75.9671 218.598 75.9872 218.614 76.0108C218.63 76.0344 218.641 76.0611 218.647 76.0892C218.652 76.1173 218.652 76.1462 218.645 76.1741C218.632 76.2311 218.599 76.2812 218.551 76.3152C218.504 76.3491 218.445 76.3645 218.387 76.3585C218.108 76.341 217.828 76.3872 217.57 76.4936C217.311 76.6001 217.08 76.7641 216.894 76.9732C216.866 77.0043 216.83 77.0271 216.789 77.039C216.749 77.051 216.707 77.0516 216.666 77.0408Z" fill="#263238"/>
<path d="M239.792 102.163L233.399 100.46C233.399 100.46 227.13 115.894 224.911 116.896C221.899 118.273 214.271 123.043 211.025 125.299C210.847 126.067 210.988 128.102 211.394 128.661C216.926 127.653 227.517 123.578 229.73 121.506C234.776 116.78 239.792 102.163 239.792 102.163Z" fill="#E58A7B"/>
<path d="M235.328 254.344C235.016 254.368 234.705 254.284 234.449 254.104C234.37 254.033 234.31 253.942 234.277 253.84C234.244 253.739 234.237 253.631 234.258 253.526C234.262 253.461 234.284 253.398 234.32 253.344C234.357 253.29 234.408 253.247 234.467 253.219C234.984 252.955 236.428 253.87 236.594 253.975C236.612 253.986 236.626 254.003 236.634 254.023C236.642 254.043 236.643 254.065 236.637 254.086C236.632 254.107 236.621 254.127 236.606 254.143C236.591 254.159 236.572 254.171 236.551 254.178C236.15 254.276 235.74 254.332 235.328 254.344ZM234.713 253.385C234.667 253.375 234.618 253.375 234.572 253.385C234.548 253.397 234.529 253.415 234.516 253.438C234.502 253.461 234.496 253.488 234.498 253.514C234.482 253.586 234.484 253.66 234.506 253.73C234.527 253.8 234.567 253.864 234.621 253.914C234.861 254.129 235.463 254.153 236.256 254C235.784 253.689 235.252 253.479 234.695 253.385H234.713Z" fill="#4CAF4F"/>
<path d="M236.521 254.178C236.505 254.183 236.487 254.183 236.471 254.178C236.01 253.92 235.144 252.906 235.273 252.389C235.292 252.307 235.338 252.234 235.404 252.182C235.47 252.13 235.551 252.101 235.635 252.1C235.718 252.089 235.802 252.096 235.881 252.121C235.961 252.145 236.034 252.186 236.096 252.242C236.607 252.678 236.637 254.018 236.637 254.086C236.64 254.106 236.636 254.127 236.626 254.144C236.616 254.162 236.601 254.176 236.582 254.184C236.561 254.188 236.54 254.186 236.521 254.178ZM235.697 252.303H235.654C235.512 252.303 235.494 252.383 235.488 252.414C235.414 252.715 235.961 253.483 236.416 253.846C236.414 253.327 236.253 252.821 235.955 252.395C235.884 252.333 235.791 252.3 235.697 252.303Z" fill="#4CAF4F"/>
<path d="M219.009 253.575C218.633 253.707 218.223 253.707 217.847 253.575C217.762 253.529 217.689 253.462 217.637 253.38C217.584 253.299 217.553 253.205 217.546 253.108C217.538 253.048 217.546 252.986 217.568 252.929C217.591 252.872 217.628 252.821 217.675 252.783C218.167 252.34 220.177 252.783 220.404 252.869C220.426 252.874 220.445 252.887 220.458 252.905C220.472 252.923 220.479 252.945 220.478 252.967C220.479 252.99 220.473 253.013 220.461 253.032C220.449 253.052 220.431 253.068 220.41 253.078C219.958 253.282 219.489 253.448 219.009 253.575ZM218.007 252.844C217.937 252.858 217.871 252.89 217.816 252.936C217.797 252.951 217.782 252.971 217.773 252.994C217.764 253.016 217.762 253.041 217.767 253.065C217.771 253.13 217.791 253.192 217.826 253.247C217.86 253.302 217.908 253.347 217.964 253.379C218.29 253.551 219.046 253.416 220.023 253.004C219.365 252.838 218.683 252.784 218.007 252.844Z" fill="#4CAF4F"/>
<path d="M220.391 253.078H220.342C219.727 252.967 218.498 252.26 218.461 251.731C218.461 251.609 218.516 251.436 218.811 251.338C218.911 251.303 219.017 251.288 219.122 251.294C219.228 251.3 219.331 251.328 219.426 251.375C220.09 251.701 220.44 252.881 220.459 252.936C220.463 252.955 220.462 252.974 220.457 252.993C220.452 253.011 220.442 253.027 220.428 253.041C220.419 253.056 220.406 253.068 220.391 253.078ZM218.934 251.522H218.873C218.682 251.59 218.682 251.67 218.682 251.695C218.682 252.014 219.574 252.598 220.194 252.795C220.051 252.301 219.749 251.869 219.334 251.566C219.21 251.503 219.068 251.487 218.934 251.522Z" fill="#4CAF4F"/>
<path d="M211.547 124.936L205.136 127.887L204.393 129.731L206.759 131.323C206.759 131.323 211.185 130.843 212.445 127.997L211.547 124.936Z" fill="#E58A7B"/>
<path d="M211.817 128.766C211.674 127.534 211.267 126.347 210.625 125.287L211.639 124.524C212.402 125.747 212.889 127.121 213.065 128.551L211.817 128.766Z" fill="#263238"/>
<path d="M212.911 125.809C213.047 126.022 213.113 126.272 213.102 126.524C213.091 126.777 213.002 127.019 212.847 127.22C212.693 127.42 212.481 127.567 212.24 127.642C211.999 127.718 211.74 127.717 211.5 127.64C211.259 127.563 211.048 127.414 210.895 127.213C210.742 127.011 210.655 126.768 210.645 126.516C210.636 126.263 210.704 126.014 210.841 125.802C210.978 125.59 211.177 125.425 211.411 125.33C211.674 125.196 211.979 125.171 212.26 125.261C212.541 125.351 212.775 125.548 212.911 125.809Z" fill="#263238"/>
<path d="M200.803 130.272L201.657 131.132L207.41 128.674L205.136 127.887L200.803 130.272Z" fill="#E58A7B"/>
<path opacity="0.2" d="M225.505 242.622C225.542 242.622 226.378 244.97 226.378 244.97L217.871 248.547L216.531 246.052L225.505 242.622Z" fill="black"/>
<path opacity="0.2" d="M242.895 245.603C242.932 245.603 243.178 247.97 243.178 247.97H233.859L233.195 245.253L242.895 245.603Z" fill="black"/>
<path d="M241.457 100.392C243.148 105.844 236.54 113.3 236.54 113.3L227.412 109.576C228.494 106.424 229.742 103.332 231.149 100.312C233.952 94.2702 239.749 94.891 241.457 100.392Z" fill="#4CAF4F"/>
<path opacity="0.2" d="M241.457 100.392C243.148 105.844 236.54 113.3 236.54 113.3L227.412 109.576C228.494 106.424 229.742 103.332 231.149 100.312C233.952 94.2702 239.749 94.891 241.457 100.392Z" fill="black"/>
<path d="M150.756 45.7661H146.828V46.3992H150.756V45.7661Z" fill="#4CAF4F"/>
<path d="M201.6 70.8242L201.125 81.3737L201.757 81.4022L202.233 70.8527L201.6 70.8242Z" fill="#4CAF4F"/>
<path d="M200.378 48.606H127.847L121.098 199.644H193.629L200.378 48.606Z" fill="#4CAF4F"/>
<path opacity="0.56" d="M198.214 50.6835H125.683L118.934 201.721H191.465L198.214 50.6835Z" fill="#FAFAFA"/>
<path opacity="0.07" d="M196.051 52.755H123.519L116.764 203.793H189.295L196.051 52.755Z" fill="#4CAF4F"/>
<path d="M187.796 118.63H125.885L125.369 130.186H187.279L187.796 118.63Z" fill="white"/>
<path d="M159.933 110.196H126.261L126.033 115.366H159.705L159.933 110.196Z" fill="#4CAF4F"/>
<path d="M186.401 149.818H124.491L123.975 161.374H185.885L186.401 149.818Z" fill="white"/>
<path opacity="0.47" d="M175.048 176.981H133.416L132.795 190.829H174.427L175.048 176.981Z" fill="#4CAF4F"/>
<path d="M172.262 192.981H130.63C130.612 192.985 130.593 192.985 130.575 192.981C130.569 192.963 130.569 192.943 130.575 192.925L131.19 179.071C131.19 179.061 131.191 179.052 131.195 179.043C131.199 179.035 131.205 179.027 131.211 179.021C131.218 179.014 131.227 179.009 131.236 179.006C131.244 179.003 131.254 179.002 131.263 179.003H172.895C172.903 178.999 172.911 178.997 172.92 178.997C172.928 178.997 172.937 178.999 172.944 179.003C172.949 179.011 172.951 179.019 172.951 179.028C172.951 179.036 172.949 179.045 172.944 179.052L172.342 192.938C172.335 192.952 172.323 192.964 172.309 192.972C172.295 192.979 172.278 192.983 172.262 192.981ZM130.704 192.833H172.188L172.803 179.126H131.319L130.704 192.833Z" fill="white"/>
<path d="M152.66 141.385H124.864L124.637 146.561H152.426L152.66 141.385Z" fill="#4CAF4F"/>
<path d="M174.254 81.3005C174.095 84.6636 172.899 87.8951 170.83 90.5514C169.298 92.5577 167.328 94.1866 165.069 95.3128C162.81 96.4391 160.323 97.0328 157.799 97.0485C155.759 97.064 153.738 96.6618 151.86 95.8666C149.981 95.0714 148.286 93.9001 146.877 92.4248C145.468 90.9494 144.377 89.2014 143.67 87.2882C142.962 85.375 142.654 83.3373 142.764 81.3005C142.98 77.074 144.803 73.0897 147.859 70.1625C150.915 67.2353 154.975 65.5862 159.206 65.5525C161.248 65.5335 163.271 65.9332 165.152 66.7271C167.032 67.5209 168.73 68.6919 170.141 70.1678C171.551 71.6437 172.643 73.3931 173.351 75.3079C174.058 77.2227 174.366 79.2623 174.254 81.3005Z" fill="white"/>
<path d="M175.736 68.8472C175.696 69.7414 175.378 70.6009 174.826 71.3059C174.418 71.8388 173.893 72.2714 173.292 72.5708C172.692 72.8701 172.03 73.0282 171.359 73.0331C170.709 73.0371 170.067 72.8817 169.491 72.5806C168.915 72.2796 168.421 71.8419 168.052 71.3059C167.565 70.5816 167.323 69.7194 167.364 68.8472C167.423 67.725 167.908 66.6678 168.721 65.8911C169.533 65.1144 170.61 64.6768 171.734 64.6674C172.276 64.6625 172.814 64.7686 173.313 64.9792C173.813 65.1898 174.264 65.5005 174.639 65.8921C175.014 66.2837 175.304 66.7479 175.493 67.2561C175.682 67.7643 175.764 68.3058 175.736 68.8472Z" fill="#4CAF4F"/>
<path d="M132.555 124.408C132.525 124.903 132.309 125.369 131.95 125.711C131.59 126.053 131.115 126.246 130.618 126.252C130.379 126.255 130.141 126.208 129.92 126.116C129.699 126.023 129.5 125.886 129.334 125.713C129.168 125.54 129.039 125.335 128.956 125.111C128.872 124.886 128.836 124.647 128.848 124.408C128.875 123.911 129.09 123.444 129.45 123.101C129.81 122.758 130.287 122.566 130.784 122.564C131.024 122.562 131.261 122.609 131.481 122.702C131.702 122.794 131.901 122.931 132.067 123.104C132.233 123.277 132.361 123.481 132.445 123.706C132.529 123.93 132.566 124.169 132.555 124.408Z" fill="#263238"/>
<path d="M140.841 124.408C140.813 124.903 140.598 125.37 140.238 125.712C139.878 126.055 139.402 126.248 138.905 126.252C138.666 126.254 138.429 126.207 138.209 126.114C137.989 126.021 137.79 125.884 137.625 125.711C137.459 125.538 137.331 125.333 137.248 125.109C137.165 124.885 137.129 124.646 137.141 124.408C137.168 123.912 137.382 123.446 137.741 123.103C138.099 122.761 138.575 122.568 139.071 122.564C139.311 122.561 139.548 122.607 139.769 122.7C139.99 122.792 140.19 122.929 140.356 123.102C140.522 123.275 140.65 123.48 140.734 123.705C140.817 123.929 140.854 124.168 140.841 124.408Z" fill="#263238"/>
<path d="M149.132 124.408C149.104 124.903 148.889 125.37 148.529 125.712C148.169 126.055 147.693 126.248 147.196 126.252C146.957 126.254 146.72 126.207 146.499 126.114C146.279 126.021 146.079 125.884 145.914 125.711C145.748 125.539 145.619 125.334 145.535 125.11C145.451 124.886 145.414 124.647 145.426 124.408C145.454 123.912 145.67 123.445 146.029 123.103C146.389 122.76 146.866 122.567 147.362 122.564C147.602 122.561 147.839 122.607 148.06 122.7C148.281 122.792 148.481 122.929 148.647 123.102C148.813 123.275 148.941 123.48 149.025 123.705C149.108 123.929 149.145 124.168 149.132 124.408Z" fill="#263238"/>
<path d="M131.16 155.596C131.13 156.092 130.914 156.557 130.555 156.9C130.195 157.242 129.72 157.435 129.224 157.44C128.984 157.442 128.747 157.395 128.526 157.302C128.306 157.209 128.107 157.072 127.941 156.9C127.775 156.727 127.646 156.523 127.563 156.298C127.479 156.074 127.442 155.835 127.453 155.596C127.481 155.1 127.697 154.634 128.057 154.291C128.416 153.949 128.893 153.756 129.39 153.752C129.629 153.75 129.866 153.797 130.087 153.89C130.307 153.983 130.506 154.12 130.672 154.293C130.838 154.465 130.967 154.67 131.05 154.894C131.134 155.118 131.171 155.357 131.16 155.596Z" fill="#263238"/>
<path d="M139.445 155.596C139.417 156.091 139.202 156.557 138.844 156.899C138.485 157.241 138.01 157.435 137.515 157.44C137.275 157.443 137.038 157.397 136.817 157.304C136.596 157.212 136.396 157.075 136.23 156.902C136.064 156.729 135.936 156.524 135.852 156.299C135.769 156.075 135.732 155.836 135.745 155.596C135.773 155.1 135.988 154.634 136.348 154.291C136.708 153.949 137.184 153.756 137.681 153.752C137.92 153.75 138.157 153.797 138.377 153.89C138.597 153.983 138.796 154.12 138.961 154.293C139.127 154.466 139.255 154.671 139.338 154.895C139.421 155.119 139.458 155.358 139.445 155.596Z" fill="#263238"/>
<path d="M147.755 155.596C147.727 156.092 147.511 156.559 147.152 156.901C146.792 157.244 146.316 157.436 145.819 157.44C145.58 157.441 145.343 157.394 145.123 157.301C144.903 157.207 144.704 157.07 144.538 156.898C144.373 156.725 144.244 156.521 144.16 156.297C144.076 156.074 144.038 155.835 144.049 155.596C144.078 155.101 144.294 154.635 144.654 154.293C145.013 153.951 145.489 153.758 145.985 153.752C146.224 153.749 146.462 153.796 146.683 153.888C146.904 153.981 147.104 154.118 147.27 154.291C147.435 154.464 147.564 154.669 147.648 154.893C147.731 155.118 147.768 155.357 147.755 155.596Z" fill="#263238"/>
<path d="M156.029 155.596C155.999 156.092 155.783 156.557 155.424 156.9C155.064 157.242 154.589 157.435 154.092 157.44C153.853 157.441 153.617 157.394 153.396 157.301C153.176 157.207 152.977 157.07 152.812 156.898C152.646 156.725 152.517 156.521 152.433 156.297C152.349 156.074 152.311 155.835 152.322 155.596C152.352 155.101 152.568 154.635 152.927 154.293C153.286 153.951 153.762 153.758 154.258 153.752C154.498 153.75 154.735 153.797 154.955 153.89C155.176 153.983 155.375 154.12 155.541 154.293C155.707 154.465 155.835 154.67 155.919 154.894C156.003 155.118 156.04 155.357 156.029 155.596Z" fill="#263238"/>
<path d="M164.352 155.596C164.322 156.092 164.106 156.557 163.746 156.9C163.387 157.242 162.911 157.435 162.415 157.44C162.176 157.443 161.938 157.397 161.717 157.304C161.496 157.212 161.297 157.075 161.131 156.902C160.965 156.729 160.836 156.524 160.752 156.299C160.669 156.075 160.632 155.836 160.645 155.596C160.673 155.1 160.889 154.634 161.249 154.291C161.608 153.949 162.085 153.756 162.581 153.752C162.821 153.75 163.058 153.797 163.278 153.89C163.499 153.983 163.698 154.12 163.864 154.293C164.03 154.465 164.158 154.67 164.242 154.894C164.326 155.118 164.363 155.357 164.352 155.596Z" fill="#263238"/>
<path d="M163.094 80.4803C165.667 77.9644 165.803 73.9317 163.399 71.473C160.994 69.0143 156.96 69.0607 154.387 71.5766C151.814 74.0925 151.678 78.1252 154.082 80.5839C156.486 83.0426 160.521 82.9962 163.094 80.4803Z" fill="#4CAF4F"/>
<path d="M170.83 90.5513C169.298 92.5577 167.327 94.1865 165.068 95.3128C162.809 96.439 160.322 97.0328 157.798 97.0484C155.351 97.0692 152.936 96.4874 150.766 95.3543C148.597 94.2213 146.739 92.5718 145.357 90.5513C148.345 87.5763 153.072 85.6339 158.309 85.6339C163.546 85.6339 168.107 87.5763 170.83 90.5513Z" fill="#4CAF4F"/>
<path opacity="0.1" d="M163.094 80.4803C165.667 77.9644 165.803 73.9317 163.399 71.473C160.994 69.0143 156.96 69.0607 154.387 71.5766C151.814 74.0925 151.678 78.1252 154.082 80.5839C156.486 83.0426 160.521 82.9962 163.094 80.4803Z" fill="white"/>
<path opacity="0.1" d="M170.83 90.5513C169.298 92.5577 167.327 94.1865 165.068 95.3128C162.809 96.439 160.322 97.0328 157.798 97.0484C155.351 97.0692 152.936 96.4874 150.766 95.3543C148.597 94.2213 146.739 92.5718 145.357 90.5513C148.345 87.5763 153.072 85.6339 158.309 85.6339C163.546 85.6339 168.107 87.5763 170.83 90.5513Z" fill="white"/>
<path d="M80.3936 132.97C79.8097 134.249 79.195 135.656 78.6602 137.021C78.1255 138.385 77.5784 139.793 77.1051 141.194C76.1387 143.956 75.4027 146.794 74.9046 149.677L74.7694 150.581C74.7565 150.736 74.771 150.892 74.8124 151.042C74.9574 151.551 75.1859 152.033 75.4885 152.468C76.2779 153.593 77.1936 154.624 78.2177 155.541C79.2974 156.545 80.43 157.491 81.6107 158.375C82.7909 159.284 84.0325 160.169 85.2557 161.005L84.1063 163.163C81.1855 161.89 78.4131 160.301 75.8389 158.424C74.4655 157.422 73.2261 156.249 72.1508 154.932C71.5135 154.149 71.0165 153.261 70.6818 152.308C70.4872 151.712 70.3876 151.09 70.3867 150.464C70.3867 150.316 70.3867 150.101 70.3867 149.997V149.695L70.4482 149.081C70.8006 145.878 71.474 142.719 72.4582 139.652C72.9376 138.14 73.4478 136.634 74.0317 135.164C74.6157 133.695 75.2181 132.257 75.9618 130.763L80.3936 132.97Z" fill="#E58A7B"/>
<path d="M84.3894 160.624L88.7351 158.424L87.6103 163.194C87.6103 163.194 84.6291 164.03 83.2461 162.579L84.3894 160.624Z" fill="#E58A7B"/>
<path d="M92.7112 159.204L91.5556 163.151L87.6094 163.194L88.7342 158.424L92.7112 159.204Z" fill="#E58A7B"/>
<path d="M98.8463 109.957C99.0787 110.809 99.4023 111.633 99.8113 112.415C99.6918 112.551 99.5379 112.652 99.3658 112.707C99.1938 112.762 99.01 112.77 98.834 112.729L98.8463 109.957Z" fill="#DF5753"/>
<path d="M98.7169 109.994C98.9715 109.994 99.1779 109.677 99.1779 109.287C99.1779 108.896 98.9715 108.58 98.7169 108.58C98.4623 108.58 98.2559 108.896 98.2559 109.287C98.2559 109.677 98.4623 109.994 98.7169 109.994Z" fill="#263238"/>
<path d="M98.582 108.604L99.5163 108.34C99.5163 108.34 99.0615 109.065 98.582 108.604Z" fill="#263238"/>
<path d="M86.8422 114.468C87.4015 117.327 87.9609 122.57 85.957 124.481C85.957 124.481 86.7438 127.383 92.0608 127.383C97.9063 127.383 94.8514 124.481 94.8514 124.481C91.6612 123.719 91.7411 121.353 92.3005 119.128L86.8422 114.468Z" fill="#E58A7B"/>
<path d="M85.287 107.953C85.582 112.729 85.6066 114.757 88.0161 117.21C91.6488 120.898 97.4514 119.496 98.5885 114.751C99.615 110.448 98.9635 103.367 94.2858 101.468C93.259 101.045 92.1413 100.891 91.0384 101.02C89.9355 101.15 88.8838 101.559 87.9829 102.208C87.082 102.857 86.3615 103.725 85.8898 104.731C85.418 105.736 85.2106 106.845 85.287 107.953Z" fill="#E58A7B"/>
<path d="M85.7597 102.58C83.3624 103.453 80.1661 102.802 81.4201 110.196C82.7478 118.027 80.707 120.603 80.707 120.603C80.707 120.603 89.7981 122.539 99.0797 120.486C99.0797 120.486 96.246 115.532 97.039 111.881C98.0532 107.27 97.2541 105.568 97.2541 105.568C97.2541 105.568 89.1281 101.351 85.7597 102.58Z" fill="#263238"/>
<path d="M95.9023 110.442C95.9048 111.35 96.1649 112.239 96.6522 113.005C97.3038 114.001 98.0721 113.62 98.2627 112.563C98.4348 111.635 98.3057 109.994 97.4759 109.354C96.6461 108.715 95.9146 109.342 95.9023 110.442Z" fill="#E58A7B"/>
<path d="M83.6757 103.386C82.9872 101.45 86.2696 98.4684 93.2154 99.6977C100.161 100.927 100.462 106.711 100.462 106.711L99.061 105.039L99.1224 106.797L91.9861 108.168L83.6757 103.386Z" fill="#263238"/>
<path d="M84.2653 124.807C84.2243 124.527 84.2946 124.241 84.461 124.011C84.6275 123.782 84.8771 123.626 85.1566 123.578C87.3203 123.221 92.2377 122.496 94.7087 122.84C96.5527 123.098 97.0321 124.168 97.112 125.047C97.1246 125.201 97.104 125.356 97.0517 125.501C96.9994 125.646 96.9166 125.779 96.8089 125.889C96.7011 126 96.571 126.086 96.4271 126.142C96.2833 126.198 96.1291 126.223 95.9749 126.215L85.2918 125.735C85.04 125.723 84.8003 125.623 84.6132 125.454C84.4262 125.285 84.3033 125.056 84.2653 124.807Z" fill="#4CAF4F"/>
<path opacity="0.6" d="M84.2653 124.807C84.2243 124.527 84.2946 124.241 84.461 124.011C84.6275 123.782 84.8771 123.626 85.1566 123.578C87.3203 123.221 92.2377 122.496 94.7087 122.84C96.5527 123.098 97.0321 124.168 97.112 125.047C97.1246 125.201 97.104 125.356 97.0517 125.501C96.9994 125.646 96.9166 125.779 96.8089 125.889C96.7011 126 96.571 126.086 96.4271 126.142C96.2833 126.198 96.1291 126.223 95.9749 126.215L85.2918 125.735C85.04 125.723 84.8003 125.623 84.6132 125.454C84.4262 125.285 84.3033 125.056 84.2653 124.807Z" fill="black"/>
<path d="M90.4434 232.191L94.408 234.945L101.04 225.952L97.0757 223.204L90.4434 232.191Z" fill="#E58A7B"/>
<path d="M81.1992 232.013L85.3852 234.398L91.2553 224.889L87.0694 222.504L81.1992 232.013Z" fill="#E58A7B"/>
<path d="M101.035 225.952L97.617 230.587L93.6523 227.839L97.0699 223.204L101.035 225.952Z" fill="#CF6F64"/>
<path d="M87.0633 222.504L91.2554 224.895L88.2312 229.794L84.0391 227.403L87.0633 222.504Z" fill="#CF6F64"/>
<path d="M93.7875 154.828C93.7875 154.828 109.265 174.332 106.358 192.987C104.016 208.053 90.4314 228.454 90.4314 228.454L84.0449 225.282C88.5464 216.262 92.388 206.927 95.5393 197.351C96.5111 194.378 96.7947 191.223 96.3688 188.125C95.9429 185.026 94.8185 182.065 93.0806 179.464C85.2374 168.013 72.6734 174.829 81.1252 154.828H93.7875Z" fill="#4CAF4F"/>
<path opacity="0.6" d="M93.7875 154.828C93.7875 154.828 109.265 174.332 106.358 192.987C104.016 208.053 90.4314 228.454 90.4314 228.454L84.0449 225.282C88.5464 216.262 92.388 206.927 95.5393 197.351C96.5111 194.378 96.7947 191.223 96.3688 188.125C95.9429 185.026 94.8185 182.065 93.0806 179.464C85.2374 168.013 72.6734 174.829 81.1252 154.828H93.7875Z" fill="black"/>
<path opacity="0.4" d="M101.379 167.355L99.1289 165.118C99.1289 165.296 103.487 192.2 104.71 199.761C105.432 197.552 105.985 195.292 106.364 192.999C107.802 183.847 104.796 174.498 101.379 167.355Z" fill="black"/>
<path d="M100.696 154.828C100.696 154.828 119.333 179.341 119.861 194.038C120.298 206.332 99.5769 230.15 99.5769 230.15L93.5531 226.253C93.5531 226.253 105.681 209.337 108.736 195.519C107.555 181.824 82.5996 154.828 82.5996 154.828H100.696Z" fill="#4CAF4F"/>
<path opacity="0.6" d="M100.696 154.828C100.696 154.828 119.333 179.341 119.861 194.038C120.298 206.332 99.5769 230.15 99.5769 230.15L93.5531 226.253C93.5531 226.253 105.681 209.337 108.736 195.519C107.555 181.824 82.5996 154.828 82.5996 154.828H100.696Z" fill="black"/>
<path d="M77.6395 125.576C75.648 126.049 73.7363 133.29 73.7363 133.29L81.5243 138.49C81.5243 138.49 84.1182 132.761 83.2085 130.253C82.268 127.641 80.1412 124.979 77.6395 125.576Z" fill="#4CAF4F"/>
<path opacity="0.2" d="M79.164 130.241L78.623 136.554L81.5182 138.496C82.3176 136.696 82.9094 134.812 83.2823 132.878L79.164 130.241Z" fill="black"/>
<path d="M103.002 125.717C103.002 125.717 105.301 126.522 100.697 154.822H81.1135C81.4455 146.831 81.4516 141.914 77.6406 125.576C80.3827 125.01 83.1622 124.645 85.9572 124.481C88.9182 124.269 91.8905 124.269 94.8515 124.481C98.6748 124.832 103.002 125.717 103.002 125.717Z" fill="#4CAF4F"/>
<path d="M104.993 130.241C105.436 131.47 105.903 132.792 106.395 134.064C106.886 135.337 107.354 136.646 107.851 137.937L109.357 141.797L109.739 142.762L109.935 143.241L110.027 143.481C110.027 143.524 110.027 143.524 110.027 143.518C109.915 143.36 109.768 143.229 109.597 143.137C109.354 142.994 109.08 142.911 108.798 142.897C108.564 142.89 108.331 142.934 108.116 143.026C107.833 143.155 107.833 143.211 107.839 143.204C107.89 143.163 107.936 143.116 107.974 143.063C108.315 142.616 108.609 142.136 108.853 141.631C109.142 141.065 109.419 140.463 109.695 139.854C110.236 138.625 110.734 137.353 111.232 136.068C111.73 134.783 112.203 133.486 112.664 132.177L114.066 128.255L116.432 128.87C115.965 131.673 115.363 134.402 114.637 137.181C114.287 138.564 113.875 139.934 113.408 141.317C113.175 142.012 112.916 142.7 112.621 143.407C112.314 144.174 111.935 144.911 111.49 145.608C111.327 145.842 111.146 146.064 110.949 146.272C110.636 146.611 110.255 146.881 109.831 147.065C109.455 147.226 109.047 147.302 108.638 147.286C108.18 147.269 107.734 147.136 107.341 146.899C106.878 146.61 106.494 146.21 106.223 145.737C106.13 145.577 106.05 145.417 105.995 145.3L105.878 145.067L105.645 144.587L105.178 143.635C104.563 142.356 103.948 141.065 103.414 139.768C102.879 138.471 102.313 137.156 101.785 135.834C101.256 134.513 100.783 133.191 100.334 131.765L104.993 130.241Z" fill="#E58A7B"/>
<path d="M103.002 125.717C105.356 126.276 108.005 133.234 108.005 133.234L101.004 139.191C101.004 139.191 96.474 131.605 97.3898 129.104C98.3426 126.498 99.9285 124.985 103.002 125.717Z" fill="#4CAF4F"/>
<path d="M115.178 126.055L117.637 124.002L119.346 126.663L118.086 128.882C118.086 128.882 116.082 130.726 114.311 129.786C114.031 129.154 113.963 128.449 114.12 127.775C114.276 127.102 114.648 126.498 115.178 126.055Z" fill="#E58A7B"/>
<path d="M122.076 124.008L121.891 124.678L118 125.33L117.619 124.002L122.076 124.008Z" fill="#E58A7B"/>
<path d="M100.057 230.464L93.0371 225.927L94.2972 223.739L102.183 228.589L100.057 230.464Z" fill="#4CAF4F"/>
<path d="M88.1319 234.078C87.516 234.003 86.9242 233.793 86.3985 233.463C86.3768 233.456 86.358 233.442 86.3447 233.423C86.3314 233.404 86.3242 233.382 86.3242 233.359C86.3242 233.336 86.3314 233.314 86.3447 233.295C86.358 233.276 86.3768 233.262 86.3985 233.254C86.589 233.193 88.2425 232.683 88.722 233.076C88.7759 233.121 88.8168 233.179 88.8406 233.245C88.8644 233.311 88.8701 233.382 88.8572 233.451C88.8487 233.562 88.812 233.668 88.7507 233.761C88.6894 233.853 88.6054 233.929 88.5068 233.98C88.3917 234.043 88.263 234.076 88.1319 234.078ZM86.7489 233.402C87.5172 233.795 88.1319 233.937 88.4269 233.789C88.4912 233.754 88.5452 233.702 88.584 233.64C88.6227 233.577 88.6448 233.506 88.6482 233.433C88.6482 233.334 88.6482 233.291 88.5929 233.267C88.3347 233.058 87.4127 233.218 86.7366 233.402H86.7489Z" fill="#263238"/>
<path d="M86.4418 233.506C86.4094 233.506 86.3784 233.493 86.3557 233.469C86.3466 233.452 86.3418 233.433 86.3418 233.414C86.3418 233.395 86.3466 233.376 86.3557 233.359C86.3557 233.304 86.7553 231.97 87.3822 231.668C87.4623 231.632 87.5493 231.613 87.6373 231.613C87.7254 231.613 87.8123 231.632 87.8924 231.668C87.9787 231.696 88.0535 231.751 88.1047 231.826C88.1559 231.9 88.1808 231.99 88.1752 232.08C88.1321 232.633 87.0073 233.396 86.491 233.525L86.4418 233.506ZM87.6343 231.828C87.5745 231.83 87.5158 231.845 87.4622 231.871C87.0811 232.056 86.7676 232.775 86.6139 233.211C87.1548 232.984 87.8986 232.381 87.9232 232.043C87.9232 231.988 87.9232 231.92 87.7818 231.859C87.7358 231.834 87.6859 231.818 87.6343 231.81V231.828Z" fill="#263238"/>
<path d="M96.9043 236.733C96.2097 236.733 95.2447 235.842 94.7161 235.295C94.7026 235.276 94.6953 235.254 94.6953 235.231C94.6953 235.207 94.7026 235.185 94.7161 235.166C94.7282 235.146 94.7455 235.13 94.766 235.119C94.7866 235.108 94.8097 235.103 94.8329 235.105C95.0787 235.105 97.2117 235.424 97.5129 236.027C97.5448 236.081 97.5616 236.142 97.5616 236.205C97.5616 236.268 97.5448 236.329 97.5129 236.383C97.4677 236.477 97.3994 236.558 97.3145 236.618C97.2296 236.678 97.1307 236.716 97.0273 236.727L96.9043 236.733ZM95.1218 235.381C95.8963 236.131 96.5785 236.549 96.9658 236.5C97.0336 236.491 97.0982 236.466 97.1539 236.426C97.2097 236.386 97.2548 236.334 97.2854 236.272C97.2992 236.251 97.3065 236.227 97.3065 236.202C97.3065 236.177 97.2992 236.152 97.2854 236.131C97.1256 235.799 95.9885 235.516 95.1218 235.381Z" fill="#263238"/>
<path d="M95.1896 235.35C95.0516 235.354 94.9136 235.344 94.7778 235.32C94.7588 235.317 94.7409 235.309 94.7258 235.297C94.7107 235.285 94.699 235.27 94.6917 235.252C94.6825 235.234 94.6777 235.214 94.6777 235.194C94.6777 235.173 94.6825 235.153 94.6917 235.135C94.7286 235.092 95.5584 234.09 96.3452 234.023C96.5679 234.005 96.7886 234.076 96.9599 234.219C97.1996 234.428 97.1873 234.613 97.1258 234.73C96.9721 235.148 95.9088 235.35 95.1896 235.35ZM95.0298 235.123C95.7182 235.16 96.8185 234.932 96.9599 234.631C96.9599 234.631 97.009 234.533 96.8492 234.398C96.7856 234.342 96.7113 234.301 96.631 234.275C96.5506 234.25 96.4659 234.241 96.3821 234.25C95.8521 234.398 95.3801 234.705 95.0298 235.129V235.123Z" fill="#263238"/>
<path d="M86.6079 232.843L81.3955 231.367C81.3056 231.34 81.2089 231.347 81.1238 231.387C81.0387 231.426 80.9713 231.496 80.9345 231.582L79.1765 235.535C79.1352 235.636 79.1158 235.745 79.1196 235.854C79.1234 235.963 79.1503 236.071 79.1985 236.169C79.2466 236.267 79.3151 236.354 79.3992 236.423C79.4834 236.493 79.5813 236.544 79.6867 236.574C81.5307 237.053 82.4158 237.188 84.7086 237.846C86.1223 238.239 88.1384 238.971 90.087 239.524C92.0355 240.077 92.687 238.178 91.931 237.772C88.5134 235.965 88.2429 234.699 87.3086 233.347C87.1413 233.102 86.8933 232.923 86.6079 232.843Z" fill="#4CAF4F"/>
<path d="M94.8571 234.576L90.4069 231.502C90.3314 231.448 90.2384 231.422 90.1455 231.431C90.0526 231.44 89.9663 231.483 89.9029 231.552L86.9524 234.723C86.8805 234.805 86.8269 234.902 86.7951 235.006C86.7633 235.11 86.7541 235.22 86.768 235.328C86.782 235.437 86.8188 235.54 86.876 235.633C86.9333 235.726 87.0096 235.806 87.0999 235.867C88.6674 236.918 89.4787 237.342 91.4395 238.7C92.6689 239.536 95.0477 241.393 96.7073 242.548C98.3669 243.704 99.6024 242.118 99.0123 241.491C96.3692 238.67 95.7914 236.899 95.355 235.295C95.2793 235.004 95.1029 234.749 94.8571 234.576Z" fill="#4CAF4F"/>
<path d="M91.2481 228.859L83.2266 224.87L84.0564 222.694L92.6249 226.899L91.2481 228.859Z" fill="#4CAF4F"/>
<path d="M80.8187 153.672L80.1426 155.443C80.075 155.578 80.2348 155.719 80.4622 155.719H100.796C100.974 155.719 101.121 155.633 101.134 155.523L101.306 153.765C101.306 153.648 101.164 153.543 100.974 153.543H81.1384C81.0787 153.538 81.0185 153.546 80.9628 153.569C80.9072 153.591 80.8578 153.627 80.8187 153.672Z" fill="#4CAF4F"/>
<path opacity="0.4" d="M80.8187 153.672L80.1426 155.443C80.075 155.578 80.2348 155.719 80.4622 155.719H100.796C100.974 155.719 101.121 155.633 101.134 155.523L101.306 153.765C101.306 153.648 101.164 153.543 100.974 153.543H81.1384C81.0787 153.538 81.0185 153.546 80.9628 153.569C80.9072 153.591 80.8578 153.627 80.8187 153.672Z" fill="white"/>
<path d="M84.02 155.891H83.4852C83.3807 155.891 83.3008 155.836 83.307 155.768L83.559 153.488C83.559 153.427 83.6573 153.371 83.7618 153.371H84.2966C84.4011 153.371 84.481 153.427 84.4749 153.488L84.2228 155.768C84.2167 155.836 84.1245 155.891 84.02 155.891Z" fill="#4CAF4F"/>
<path d="M96.5588 155.891H96.0302C95.9257 155.891 95.8457 155.836 95.8519 155.768L96.0978 153.488C96.0978 153.427 96.2023 153.371 96.3068 153.371H96.8354C96.9399 153.371 97.0259 153.427 97.0136 153.488L96.7678 155.768C96.737 155.836 96.6694 155.891 96.5588 155.891Z" fill="#4CAF4F"/>
<g style="mix-blend-mode:multiply">
<path d="M83.5531 259.986C92.6476 259.986 100.02 259.453 100.02 258.794C100.02 258.135 92.6476 257.602 83.5531 257.602C74.4585 257.602 67.0859 258.135 67.0859 258.794C67.0859 259.453 74.4585 259.986 83.5531 259.986Z" fill="#F5F5F5"/>
</g>
<path d="M93.5843 257.11C90.6708 256.262 87.4376 255.174 85.4829 254.036C85.4276 254 85.3661 253.981 85.3108 253.95V240.76H91.2056C91.653 240.733 92.0735 240.537 92.3809 240.21C92.6884 239.884 92.8596 239.453 92.8596 239.005C92.8596 238.556 92.6884 238.125 92.3809 237.799C92.0735 237.473 91.653 237.276 91.2056 237.25H85.3416V177.122H81.801V237.25H75.9432C75.704 237.236 75.4644 237.27 75.2392 237.352C75.014 237.434 74.8079 237.561 74.6335 237.725C74.4591 237.89 74.3202 238.088 74.2252 238.308C74.1303 238.528 74.0813 238.765 74.0813 239.005C74.0813 239.244 74.1303 239.481 74.2252 239.701C74.3202 239.921 74.4591 240.12 74.6335 240.284C74.8079 240.448 75.014 240.575 75.2392 240.657C75.4644 240.739 75.704 240.774 75.9432 240.76H81.801V253.932C81.7457 253.932 81.6904 253.981 81.6351 254.018C79.6497 255.174 76.4411 256.262 73.5275 257.091C73.3307 257.151 73.1617 257.279 73.0511 257.452C72.9405 257.626 72.8956 257.833 72.9246 258.036C72.9536 258.24 73.0545 258.426 73.209 258.562C73.3636 258.698 73.5616 258.773 73.7672 258.776H93.3446C93.5411 258.762 93.727 258.682 93.8714 258.548C94.0158 258.414 94.1098 258.235 94.1379 258.04C94.1659 257.845 94.1263 257.646 94.0255 257.477C93.9248 257.308 93.7691 257.178 93.5843 257.11Z" fill="#E0E0E0"/>
<path d="M94.4872 171H72.6293C70.8708 171 69.4453 172.426 69.4453 174.184V180.681C69.4453 182.44 70.8708 183.865 72.6293 183.865H94.4872C96.2457 183.865 97.6712 182.44 97.6712 180.681V174.184C97.6712 172.426 96.2457 171 94.4872 171Z" fill="#4CAF4F"/>
<path d="M72.4277 183.871V184.99C72.4277 185.912 73.4297 186.662 74.659 186.662H92.4846C93.7139 186.662 94.7159 185.912 94.7159 184.99V183.871H72.4277Z" fill="#4CAF4F"/>
<path opacity="0.3" d="M72.4277 183.871V184.99C72.4277 185.912 73.4297 186.662 74.659 186.662H92.4846C93.7139 186.662 94.7159 185.912 94.7159 184.99V183.871H72.4277Z" fill="white"/>
</svg>
